<?xml version="1.0" encoding="UTF-8" standalone="no"?>
<!-- Created with Inkscape (http://www.inkscape.org/) -->

<svg
   xmlns:dc="http://purl.org/dc/elements/1.1/"
   xmlns:cc="http://creativecommons.org/ns#"
   xmlns:rdf="http://www.w3.org/1999/02/22-rdf-syntax-ns#"
   xmlns:svg="http://www.w3.org/2000/svg"
   xmlns="http://www.w3.org/2000/svg"
   xmlns:sodipodi="http://sodipodi.sourceforge.net/DTD/sodipodi-0.dtd"
   xmlns:inkscape="http://www.inkscape.org/namespaces/inkscape"
   width="286"
   height="421"
   viewBox="0 0 75.67083 111.38958"
   version="1.1"
   id="svg23489"
   inkscape:version="0.48.5 r10040"
   sodipodi:docname="cresent_moon.svg">
  <defs
     id="defs23483">
    <filter
       color-interpolation-filters="sRGB"
       inkscape:collect="always"
       id="filter9270-9">
      <feGaussianBlur
         inkscape:collect="always"
         stdDeviation="13.123901"
         id="feGaussianBlur9272-4" />
    </filter>
  </defs>
  <sodipodi:namedview
     id="base"
     pagecolor="#7d848b"
     bordercolor="#666666"
     borderopacity="1.0"
     inkscape:pageopacity="0"
     inkscape:pageshadow="2"
     inkscape:zoom="1.2054152"
     inkscape:cx="65.381847"
     inkscape:cy="131.26967"
     inkscape:document-units="px"
     inkscape:current-layer="layer1"
     showgrid="false"
     inkscape:pagecheckerboard="false"
     showborder="true"
     units="px"
     inkscape:window-width="1920"
     inkscape:window-height="1017"
     inkscape:window-x="-8"
     inkscape:window-y="-8"
     inkscape:window-maximized="1"
     inkscape:showpageshadow="false"
     guidetolerance="28"
     fit-margin-top="0"
     fit-margin-left="0"
     fit-margin-right="0"
     fit-margin-bottom="0">
    <inkscape:grid
       type="xygrid"
       id="grid24034"
       spacingx="1px"
       spacingy="1px"
       empspacing="8"
       visible="true"
       enabled="true"
       snapvisiblegridlinesonly="true"
       originx="-90.102355px"
       originy="-262.0938px" />
  </sodipodi:namedview>
  <metadata
     id="metadata23486">
    <rdf:RDF>
      <cc:Work
         rdf:about="">
        <dc:format>image/svg+xml</dc:format>
        <dc:type
           rdf:resource="http://purl.org/dc/dcmitype/StillImage" />
        <dc:title></dc:title>
        <cc:license
           rdf:resource="" />
        <dc:creator>
          <cc:Agent>
            <dc:title>Robert Brooks</dc:title>
          </cc:Agent>
        </dc:creator>
      </cc:Work>
    </rdf:RDF>
  </metadata>
  <g
     inkscape:label="Layer 1"
     inkscape:groupmode="layer"
     id="layer1"
     transform="translate(-23.839581,-116.26476)">
    <path
       inkscape:connector-curvature="0"
       style="color:#000000;fill:#edbeef;fill-opacity:1;fill-rule:nonzero;stroke:none;stroke-width:8;marker:none;visibility:visible;display:inline;overflow:visible;enable-background:accumulate"
       d="m 43.145914,123.83087 c -3.996731,0.043 -7.92278,0.59028 -11.692955,1.58623 1.622058,0.22084 3.251506,0.5277 4.879649,0.93666 24.633882,6.18786 36.255296,31.96726 30.593459,57.58101 -4.07803,18.44884 -14.205605,31.78471 -30.857846,35.48675 25.012309,4.04612 49.112759,-12.11684 54.612437,-37.1712 5.695456,-25.94627 -10.718891,-51.59849 -36.665113,-57.29397 -3.64869,-0.80092 -7.287293,-1.16412 -10.869631,-1.12548 z"
       id="path9287-7"
       sodipodi:nodetypes="cccscssc" />
    <path
       id="path9285"
       transform="matrix(0.24171482,0,0,0.24171482,-848.72888,399.90696)"
       d="m 3689.7812,-1142.1562 c -16.5349,0.1782 -32.7774,2.442 -48.375,6.5624 6.7106,0.9136 13.4518,2.1831 20.1876,3.875 101.913,25.5999 165.5487,132.25201 142.125,238.2188 -16.8715,76.32486 -74.3267,131.49674 -143.2188,146.8125 103.4786,16.73922 203.1846,-50.12867 225.9375,-153.78125 23.5628,-107.34245 -44.3451,-213.46845 -151.6875,-237.03125 -15.095,-3.3135 -30.1483,-4.8161 -44.9688,-4.6562 z"
       style="color:#000000;fill:#ffd5ff;fill-opacity:1;fill-rule:nonzero;stroke:none;stroke-width:8;marker:none;visibility:visible;display:inline;overflow:visible;filter:url(#filter9270-9);enable-background:accumulate"
       inkscape:connector-curvature="0"
       gds_switchable="glow" />
    <path
       id="path9287"
       d="m 43.145919,123.83088 c -3.996731,0.0431 -7.922784,0.59027 -11.692955,1.58623 1.622052,0.22083 3.2515,0.52769 4.879642,0.93664 24.633883,6.18788 40.015575,31.96727 34.353719,57.58102 -4.078092,18.44885 -17.965865,31.78471 -34.618106,35.48676 25.012311,4.04611 49.112729,-12.11685 54.612442,-37.17121 5.695478,-25.94626 -10.718868,-51.59849 -36.665117,-57.29397 -3.648685,-0.80092 -7.287291,-1.16412 -10.869625,-1.12547 z"
       style="color:#000000;fill:#ffd5ff;fill-opacity:1;fill-rule:nonzero;stroke:none;stroke-width:8;marker:none;visibility:visible;display:inline;overflow:visible;enable-background:accumulate"
       inkscape:connector-curvature="0" />
    <path
       id="path9289"
       d="m 86.088079,149.1958 c 0.627879,1.62305 1.289235,3.33581 1.654224,5.87672 0.503879,3.50669 1.846266,8.04653 2.009279,10.20489 0.162964,2.15834 0.690579,1.63822 -0.430567,2.87791 -1.12117,1.23969 -2.553113,1.9866 -2.553113,1.9866 0,0 0.125233,-2.51562 -0.5514,-3.30092 -0.67668,-0.7853 -0.74772,-1.43747 -1.133062,-2.58333 -0.385197,-1.14584 -4.010943,-3.00633 -4.010943,-3.00633 0,0 -1.97672,1.26259 -2.243428,2.47758 -0.266684,1.21499 -3.248019,2.25852 -3.248019,2.25852 l -2.681536,-0.37012 c 0,0 -0.656207,0.96796 -1.367187,1.94127 0.61514,5.33514 0.373546,10.85903 -0.846002,16.37618 -1.455945,6.58653 -4.167768,12.52334 -7.802869,17.59986 0,0.0281 -0.0085,0.0537 -0.0075,0.0831 0.0247,0.85444 -2.230423,4.39527 -2.205647,5.24974 0.0247,0.85444 2.626279,2.48043 2.764637,3.78435 0.138285,1.30389 -2.050201,3.58355 -3.754145,5.54433 -0.500906,0.5764 -1.290347,1.20232 -2.122571,1.81286 16.152907,-4.87032 29.255905,-18.10966 33.130062,-35.75868 2.563241,-11.67715 0.647022,-23.28919 -4.600147,-33.05452 z m -44.264026,68.51861 c -1.876577,0.69699 -3.805703,1.27091 -5.770942,1.70712 3.159817,0.51242 6.30883,0.70685 9.40423,0.59673 -0.511058,-0.36063 -0.745618,-0.77647 -0.589204,-1.13304 0.240192,-0.54741 -1.096588,-0.82822 -3.044084,-1.17081 z"
       style="color:#000000;fill:#f5ccf7;fill-opacity:1;fill-rule:nonzero;stroke:none;stroke-width:8;marker:none;visibility:visible;display:inline;overflow:visible;enable-background:accumulate"
       inkscape:connector-curvature="0"
       gds_switchable="mare" />
    <g
       id="g9466"
       gds_switchable="craters">
      <path
         inkscape:connector-curvature="0"
         style="color:#000000;fill:#ffe1ff;fill-opacity:1;fill-rule:nonzero;stroke:none;stroke-width:8;marker:none;visibility:visible;display:inline;overflow:visible;enable-background:accumulate"
         d="m 42.790912,124.83549 c -0.288511,0.003 -0.580962,0.014 -0.868651,0.0227 -0.132363,0.004 -0.260616,0.01 -0.392786,0.015 -0.113292,0.004 -0.226777,0.002 -0.339924,0.008 0.103309,0.34959 0.964588,0.67801 2.107439,0.76292 1.305986,0.0971 2.486521,-0.14897 2.628649,-0.55142 0.022,-0.0635 0.01354,-0.12596 -0.01499,-0.18886 -0.04953,-0.003 -0.101496,-0.005 -0.151072,-0.007 -0.148026,-0.007 -0.297817,-0.0167 -0.445674,-0.0227 -0.198061,-0.008 -0.391409,-0.009 -0.58918,-0.015 -0.332309,-0.01 -0.658044,-0.0198 -0.989508,-0.0227 -0.206738,-0.002 -0.420632,0 -0.62696,0 -0.105967,0 -0.211331,-0.002 -0.31725,0 z m 7.946375,0.56654 c -0.05144,0.0353 -0.08791,0.074 -0.09821,0.12085 -0.09149,0.41677 1.556982,1.12642 3.686151,1.5938 2.129338,0.4674 3.934586,0.51497 4.026075,0.0982 0,-0.003 0,-0.005 0,-0.007 -0.324285,-0.10476 -0.646491,-0.21128 -0.974425,-0.30971 -0.04668,-0.0135 -0.09671,-0.0242 -0.143506,-0.0377 -0.375601,-0.11138 -0.752918,-0.22185 -1.133039,-0.32482 -0.760241,-0.20589 -1.534019,-0.39585 -2.311398,-0.5665 -1.019649,-0.22383 -2.034175,-0.40988 -3.051649,-0.56651 z m 11.851592,4.93248 c -0.272147,0.0123 -0.441589,0.0999 -0.468347,0.26438 -0.0684,0.42129 0.846751,1.18907 2.039493,1.72976 1.192597,0.54055 2.205116,0.64036 2.273618,0.21905 0.0684,-0.42119 -0.831765,-1.19673 -2.024362,-1.7373 -0.447221,-0.20278 -0.873098,-0.34904 -1.231247,-0.42301 -0.223755,-0.0461 -0.425901,-0.0603 -0.589155,-0.0529 z m -7.372302,0.20396 c -0.289962,0.0164 -0.498465,0.13301 -0.543859,0.3399 -0.07906,0.36017 0.368398,0.85907 0.997074,1.11038 0.628676,0.25122 1.205021,0.16379 1.284086,-0.19641 0.07911,-0.36028 -0.368398,-0.85913 -0.997074,-1.11037 -0.07861,-0.0315 -0.150588,-0.0622 -0.226583,-0.0831 -0.06662,-0.0181 -0.132944,-0.0273 -0.196418,-0.0378 -0.111116,-0.0181 -0.220589,-0.0281 -0.317226,-0.0227 z m 10.454166,6.34501 c -0.157018,0.009 -0.278408,0.0765 -0.34749,0.19637 -0.184162,0.31974 0.09504,0.91748 0.619419,1.34456 0.524352,0.42709 1.099947,0.51606 1.284086,0.19637 0.184307,-0.31969 -0.08745,-0.92499 -0.611829,-1.35208 -0.262188,-0.21353 -0.54572,-0.34248 -0.778032,-0.37768 -0.05803,-0.009 -0.113823,-0.0106 -0.166154,-0.007 z m 9.283347,3.76923 c -0.188102,0 -0.359671,0.0542 -0.506102,0.17372 -0.624833,0.51007 -0.527301,1.95922 0.2115,3.23293 0.738874,1.27374 1.837686,1.89241 2.462494,1.38232 0.62476,-0.51006 0.54236,-1.95165 -0.196417,-3.22539 -0.507988,-0.87569 -1.195909,-1.43828 -1.775081,-1.54093 -0.06582,-0.0116 -0.133693,-0.0225 -0.196394,-0.0227 z m -8.497774,4.38865 c -0.955668,0 -1.592514,0.76577 -1.472962,1.87329 0.136617,1.26569 1.208284,2.50421 2.394475,2.76458 1.186216,0.2604 2.03258,-0.55471 1.895963,-1.8204 -0.136617,-1.26569 -1.208284,-2.50424 -2.394475,-2.76461 -0.148292,-0.0326 -0.286481,-0.0527 -0.423001,-0.0529 z m 15.280896,6.98705 c -0.0321,0.002 -0.06727,0.008 -0.09821,0.015 -0.989218,0.20853 -1.311932,2.6147 -0.717579,5.37059 0.594425,2.75593 1.881049,4.81622 2.870363,4.6077 0.989218,-0.20854 1.311932,-2.5996 0.717579,-5.3555 -0.520049,-2.41142 -1.576053,-4.29933 -2.49266,-4.59258 -0.06548,-0.0213 -0.118464,-0.0406 -0.181286,-0.0453 -0.03142,-0.002 -0.06611,-0.002 -0.09821,0 z m 5.378155,22.2151 c -0.78509,0.0148 -1.688523,1.36731 -2.08479,3.17251 -0.422687,1.92554 -0.107322,3.63515 0.710037,3.81456 0.817359,0.17942 1.820741,-1.23941 2.243404,-3.16495 0.422686,-1.92555 0.107321,-3.62759 -0.710013,-3.80701 -0.0511,-0.0112 -0.106307,-0.0161 -0.158638,-0.0151 z m -13.64178,7.93127 c -0.940706,0.0648 -2.034707,1.02973 -2.590893,2.37183 -0.635637,1.53383 -0.329191,2.97651 0.679847,3.21027 1.009111,0.23377 2.348018,-0.82289 2.983656,-2.35672 0.635637,-1.53382 0.329288,-2.96138 -0.679823,-3.19516 -0.126127,-0.0292 -0.258394,-0.0395 -0.392787,-0.0302 z m -0.815788,13.10548 c -1.157233,-0.0173 -2.580595,0.8945 -3.278257,2.13766 -0.74424,1.32603 -0.376108,2.52821 0.815788,2.68153 1.19192,0.15329 2.760673,-0.79653 3.504865,-2.12256 0.697685,-1.24315 0.422565,-2.37326 -0.596722,-2.6362 -0.06816,-0.0172 -0.144594,-0.0282 -0.219066,-0.0378 -0.0745,-0.01 -0.149452,-0.0215 -0.226608,-0.0226 z m 8.550662,1.06505 c -0.310362,0.0676 -0.751805,0.51193 -1.095258,1.12549 -0.418674,0.74796 -0.518067,1.46283 -0.226632,1.59381 0.291532,0.13104 0.857798,-0.36999 1.276569,-1.11794 0.418674,-0.74796 0.525584,-1.45527 0.234149,-1.58625 -0.01837,-0.009 -0.04005,-0.0118 -0.06043,-0.0151 -0.03809,-0.006 -0.08407,-0.01 -0.128399,0 z m -10.884708,6.29214 c -1.723983,0.10321 -3.70092,1.26496 -5.008041,2.91569 -0.1094,-0.39718 -0.414952,-0.7103 -0.861109,-0.80824 -0.744385,-0.1634 -1.585263,0.32228 -1.888397,1.08772 -0.303038,0.76545 0.04875,1.52105 0.793114,1.68445 0.289696,0.0636 0.593265,0.0285 0.876217,-0.0831 -0.747793,2.03952 -0.0041,3.73632 1.895962,3.98074 2.174612,0.27972 5.032503,-1.44815 6.390336,-3.86744 1.272894,-2.2681 0.771916,-4.33946 -1.087717,-4.81918 -0.06198,-0.0159 -0.124169,-0.027 -0.188852,-0.0378 -0.06456,-0.0108 -0.128447,-0.0214 -0.196369,-0.0302 -0.233303,-0.03 -0.478885,-0.0374 -0.725144,-0.0226 z m -15.651035,10.8394 c -0.568126,-0.0217 -1.269994,0.20113 -1.895962,0.6345 -1.040655,0.72039 -1.48089,1.76018 -0.981967,2.33406 0.498996,0.5739 1.74668,0.45603 2.787286,-0.26437 1.040582,-0.72041 1.480866,-1.76018 0.981942,-2.33406 -0.155906,-0.17934 -0.384109,-0.29308 -0.65715,-0.33991 -0.07508,-0.0129 -0.153005,-0.0271 -0.234149,-0.0302 z m -13.475601,4.46417 c -0.403108,0.14282 -0.808705,0.28434 -1.21614,0.41545 0.106693,0.0295 0.217616,0.0539 0.339924,0.0755 0.63832,0.11277 1.221651,0.0547 1.291651,-0.12842 0.0437,-0.11447 -0.12864,-0.24886 -0.415435,-0.36257 z"
         id="path9291" />
      <path
         transform="matrix(0.26458333,0,0,0.26458333,23.83958,116.26476)"
         id="path9293"
         d="m 72.46875,28.59375 c -1.090802,0.01512 -2.193464,0.05898 -3.28125,0.09375 -0.50036,0.01512 -1.000278,0.0436 -1.5,0.0625 -0.428281,0.0189 -0.853612,0.01235 -1.28125,0.03125 0.388811,1.328617 3.679739,2.588959 8,2.90625 4.93683,0.362835 9.366972,-0.594329 9.90625,-2.125 0.08496,-0.240756 0.04533,-0.479959 -0.0625,-0.71875 -0.187389,-0.0076 -0.343899,-0.02369 -0.53125,-0.03125 -0.559472,-0.02646 -1.128489,-0.04058 -1.6875,-0.0625 -0.748668,-0.03024 -1.533588,-0.0436 -2.28125,-0.0625 -1.256341,-0.03402 -2.465606,-0.08468 -3.71875,-0.09375 -0.781463,-0.0076 -1.563746,-0.0076 -2.34375,0 -0.400872,0 -0.818335,-0.0076 -1.21875,0 z m 30.03125,2.125 c -0.19476,0.134551 -0.33588,0.259257 -0.375,0.4375 -0.34791,1.585021 5.89016,4.296024 13.9375,6.0625 8.04771,1.766665 14.87077,1.928959 15.21875,0.34375 l 0,-0.03125 c -1.22546,-0.396775 -2.44834,-0.783778 -3.6875,-1.15625 -0.17624,-0.05405 -0.35458,-0.103715 -0.53125,-0.15625 C 125.64309,35.797144 124.18659,35.389443 122.75,35 c -2.87308,-0.779376 -5.74947,-1.511349 -8.6875,-2.15625 -3.8538,-0.845972 -7.71674,-1.534184 -11.5625,-2.125 z M 64.75,42.5 c -0.868709,0 -1.68482,0.04173 -2.5,0.15625 4.267185,1.498621 8.440565,3.157714 12.53125,4.96875 -0.124687,-2.099112 -2.547638,-3.924255 -6.0625,-4.71875 -0.912654,-0.211654 -1.860489,-0.322087 -2.90625,-0.375 C 65.46399,42.512352 65.093593,42.49622 64.75,42.5 z m 82.53125,6.90625 c -1.02886,0.04838 -1.6793,0.374148 -1.78125,1 -0.2609,1.602028 3.2123,4.512824 7.71875,6.5625 4.50608,2.049335 8.33274,2.445778 8.59375,0.84375 0.26083,-1.601688 -3.15007,-4.544415 -7.65625,-6.59375 -1.68974,-0.768491 -3.3028,-1.345428 -4.65625,-1.625 -0.84569,-0.174614 -1.60145,-0.216602 -2.21875,-0.1875 z m -27.875,0.8125 c -1.09619,0.06387 -1.85859,0.525716 -2.03125,1.3125 -0.30066,1.369701 1.3432,3.235286 3.71875,4.1875 2.37546,0.952328 4.57435,0.619701 4.875,-0.75 0.30085,-1.370268 -1.37445,-3.266611 -3.75,-4.21875 -0.29681,-0.119811 -0.55643,-0.202258 -0.84375,-0.28125 -0.25123,-0.06954 -0.51,-0.148571 -0.75,-0.1875 -0.41997,-0.06841 -0.85333,-0.08367 -1.21875,-0.0625 z m 39.5,24.09375 c -0.59364,0.0378 -1.05076,0.262561 -1.3125,0.71875 -0.69787,1.216479 0.36332,3.503847 2.34375,5.125 1.98034,1.621191 4.11472,1.966517 4.8125,0.75 0.69824,-1.216479 -0.33214,-3.535135 -2.3125,-5.15625 -0.99022,-0.810633 -2.02831,-1.273513 -2.90625,-1.40625 -0.21936,-0.03402 -0.42721,-0.04599 -0.625,-0.03125 z M 194,88.5625 c -0.71112,0 -1.38333,0.232294 -1.9375,0.6875 -2.36468,1.942261 -2.00559,7.442321 0.78125,12.28125 2.78702,4.83897 6.94791,7.16109 9.3125,5.21875 2.36459,-1.94226 2.03684,-7.379859 -0.75,-12.21875 -1.91612,-3.326854 -4.49841,-5.518886 -6.6875,-5.90625 -0.24877,-0.04384 -0.48168,-0.03125 -0.71875,-0.03125 l 0,-0.03125 z m -32.1875,16.75 c -3.61289,3.8e-4 -6.00896,2.88377 -5.5625,7.09375 0.51032,4.81134 4.54791,9.5471 9.03125,10.53125 4.48324,0.98411 7.72898,-2.12609 7.21875,-6.9375 -0.51032,-4.81138 -4.57916,-9.51581 -9.0625,-10.5 -0.56038,-0.12283 -1.10883,-0.1875 -1.625,-0.1875 z m 57.75,26.5 c -0.12132,0.0113 -0.25802,0.005 -0.375,0.0312 -3.74097,0.79771 -4.95224,9.9628 -2.71875,20.4375 2.23367,10.4747 7.1026,18.32888 10.84375,17.53125 3.74088,-0.79767 4.95224,-9.93159 2.71875,-20.40625 -1.9543,-9.16535 -5.94237,-16.3584 -9.40625,-17.46875 -0.24741,-0.0794 -0.48132,-0.10686 -0.71875,-0.125 -0.11875,-0.008 -0.22243,-0.0113 -0.34375,0 z m 20.21875,84.40625 c -2.96818,0.0601 -6.36807,5.1974 -7.875,12.0625 -1.60742,7.32276 -0.43289,13.85313 2.65625,14.53125 3.08923,0.67812 6.89248,-4.73974 8.5,-12.0625 1.60742,-7.3228 0.40173,-13.79066 -2.6875,-14.46875 -0.19302,-0.0423 -0.39587,-0.0667 -0.59375,-0.0625 z M 188.9375,246.4375 c -0.24805,-0.0121 -0.49594,0.0131 -0.75,0.0312 -3.5567,0.25096 -7.70316,3.89477 -9.8125,9 -2.41054,5.83457 -1.28235,11.3037 2.53125,12.1875 3.81378,0.88392 8.90187,-3.13422 11.3125,-8.96875 2.41063,-5.83457 1.28262,-11.27241 -2.53125,-12.15625 -0.2383,-0.0552 -0.50195,-0.0817 -0.75,-0.0937 z m -3.90625,49.875 c -4.37489,-0.0601 -9.76257,3.39522 -12.40625,8.125 -2.82009,5.04503 -1.44294,9.57923 3.0625,10.15625 4.50535,0.57706 10.42991,-3.01744 13.25,-8.0625 2.64377,-4.72974 1.6334,-9.03659 -2.21875,-10.03125 -0.25682,-0.0665 -0.53103,-0.11959 -0.8125,-0.15625 -0.28157,-0.0378 -0.5833,-0.0271 -0.875,-0.0312 z m 32.3125,3.96875 c -1.17245,0.26036 -2.85471,1.97816 -4.15625,4.3125 -1.5865,2.84572 -1.97621,5.53473 -0.875,6.03125 1.1014,0.49659 3.25698,-1.40436 4.84375,-4.25 1.5865,-2.84572 2.00737,-5.56598 0.90625,-6.0625 -0.0694,-0.0302 -0.17309,-0.0188 -0.25,-0.0312 -0.14408,-0.0237 -0.30126,-0.0372 -0.46875,0 z M 177.53125,324.25 c -6.81759,-0.19691 -15.00915,4.36279 -20.3125,11.09375 -0.05,-0.17905 -0.11673,-0.36252 -0.1875,-0.53125 -0.0769,-0.1834 -0.14947,-0.36199 -0.25,-0.53125 -0.0114,-0.0195 -0.0195,-0.0433 -0.0312,-0.0625 -0.18676,-0.3025 -0.42845,-0.56635 -0.6875,-0.8125 -0.14066,-0.13366 -0.27682,-0.26069 -0.4375,-0.375 -0.0716,-0.0516 -0.14324,-0.10877 -0.21875,-0.15625 -0.0889,-0.0551 -0.18713,-0.10709 -0.28125,-0.15625 -0.18038,-0.0942 -0.36367,-0.17921 -0.5625,-0.25 -0.0216,-0.008 -0.0407,-0.0237 -0.0625,-0.0312 -0.16415,-0.0556 -0.35541,-0.0864 -0.53125,-0.125 -2.11007,-0.46318 -4.42788,0.4378 -5.9375,2.15625 -0.01,0.0108 -0.0217,0.0204 -0.0312,0.0312 -0.46535,0.5272 -0.842,1.12287 -1.125,1.78125 -0.0218,0.0514 -0.0419,0.10418 -0.0625,0.15625 -0.004,0.009 0.003,0.0225 0,0.0312 -0.13822,0.35484 -0.2454,0.71247 -0.3125,1.0625 -0.0676,0.35809 -0.0981,0.71884 -0.0937,1.0625 0.001,0.17261 0.013,0.33249 0.0312,0.5 0.0389,0.33323 0.11391,0.6628 0.21875,0.96875 0.25537,0.77001 0.68746,1.4329 1.3125,1.9375 0.006,0.005 0.025,-0.005 0.0312,0 0.11918,0.095 0.24379,0.19878 0.375,0.28125 0.007,0.005 0.024,-0.004 0.0312,0 0.40986,0.254 0.85695,0.48003 1.375,0.59375 0.18245,0.0401 0.37643,0.0439 0.5625,0.0625 0.17836,0.0196 0.35158,0.03 0.53125,0.0312 0.16718,-5.5e-4 0.33253,-0.0155 0.5,-0.0312 0.0303,-0.002 0.0634,0.003 0.0937,0 0.0202,-0.002 0.0423,0.002 0.0625,0 0.24454,-0.0263 0.47702,-0.0991 0.71875,-0.15625 0.0192,-0.005 0.0433,0.005 0.0625,0 0.2455,-0.0627 0.48097,-0.12811 0.71875,-0.21875 0.0307,-0.0115 0.0632,-0.0192 0.0937,-0.0312 -2.83717,7.75771 -0.0258,14.2051 7.15625,15.125 8.21992,1.05283 19.04229,-5.54545 24.1875,-14.75 4.82346,-8.6293 2.93433,-16.49776 -4.09375,-18.3125 -0.23433,-0.0605 -0.47419,-0.11656 -0.71875,-0.15625 -0.24438,-0.0397 -0.52454,-0.0609 -0.78125,-0.0937 -0.44098,-0.0563 -0.88925,-0.0809 -1.34375,-0.0937 z m -61.4375,41.3125 c -1.97825,0.12765 -4.23997,0.96191 -6.3125,2.40625 -3.93775,2.74394 -5.63341,6.69561 -3.75,8.875 1.8835,2.17943 6.62493,1.74397 10.5625,-1 3.93766,-2.74397 5.60207,-6.72686 3.71875,-8.90625 -0.58852,-0.68107 -1.46803,-1.10456 -2.5,-1.28125 -0.28377,-0.0488 -0.56813,-0.0828 -0.875,-0.0937 -0.26845,-0.01 -0.56114,-0.0182 -0.84375,0 z M 67.5,383.59375 c -0.977794,0.35981 -1.952672,0.72102 -2.9375,1.0625 1.572983,0.0624 2.775529,-0.1807 2.96875,-0.6875 0.04293,-0.11414 0.02631,-0.25292 -0.03125,-0.375 z m 5.15625,5.5 c -3.844475,0.16894 -6.874591,1.14424 -7.125,2.34375 -0.04021,0.1852 -0.03244,0.35467 0.0625,0.53125 5.499863,0.29405 10.974997,0.35883 16.40625,0.15625 0.08954,-0.12208 0.160439,-0.2779 0.1875,-0.40625 0.176882,-0.85723 -1.126869,-1.6733 -3.25,-2.15625 -1.273969,-0.28989 -2.868294,-0.44003 -4.59375,-0.46875 -0.57518,-0.0113 -1.138263,-0.0227 -1.6875,0 z"
         style="color:#000000;fill:#edbeef;fill-opacity:1;fill-rule:nonzero;stroke:none;stroke-width:8;marker:none;visibility:visible;display:inline;overflow:visible;enable-background:accumulate"
         inkscape:connector-curvature="0" />
      <path
         inkscape:connector-curvature="0"
         style="opacity:0.44690265;color:#000000;fill:#e297e5;fill-opacity:1;fill-rule:nonzero;stroke:none;stroke-width:8;marker:none;visibility:visible;display:inline;overflow:visible;enable-background:accumulate"
         d="m 43.01752,123.83088 c -0.288608,0.004 -0.580865,0.0135 -0.868675,0.0227 -0.132387,0.004 -0.26811,0.01 -0.400328,0.015 -0.113316,0.005 -0.226753,0.01 -0.339899,0.015 0.06355,0.21723 0.420124,0.42678 0.951727,0.57408 0.173552,-0.006 0.348481,-0.0203 0.52121,-0.0227 0.10592,-0.002 0.211259,0.008 0.317251,0.007 0.206352,0 0.412631,-0.009 0.619394,-0.007 0.33156,0.002 0.657126,0.0135 0.989508,0.0227 0.197844,0.006 0.39866,0.0147 0.596746,0.0227 0.03696,0.002 0.07619,-0.002 0.113315,0 0.337362,-0.10034 0.569142,-0.22871 0.626936,-0.39279 0.02248,-0.0637 0.01354,-0.12564 -0.01499,-0.18883 -0.04958,-0.002 -0.09396,-0.005 -0.14353,-0.007 -0.148027,-0.007 -0.297721,-0.0169 -0.44565,-0.0227 -0.198085,-0.008 -0.398878,-0.01 -0.596721,-0.015 -0.332407,-0.009 -0.657972,-0.0203 -0.989533,-0.0227 -0.206762,-0.002 -0.413018,-0.002 -0.619394,0 -0.106064,0 -0.211307,-0.002 -0.31725,0 z m 7.938833,0.55894 c -0.05153,0.0356 -0.08784,0.0737 -0.09821,0.12086 -0.03672,0.16722 0.218994,0.37814 0.65715,0.60429 0.788982,0.13219 1.573975,0.27973 2.364285,0.45321 0.777355,0.17065 1.543712,0.35261 2.303857,0.55899 0.380096,0.10295 0.7651,0.21307 1.14058,0.32479 0.04097,0.0121 0.07972,0.026 0.120857,0.0378 0.652219,0.004 1.082326,-0.0904 1.125497,-0.28706 0,-0.003 0,-0.005 0,-0.007 -0.324237,-0.10498 -0.646539,-0.21114 -0.974425,-0.30969 -0.04663,-0.0143 -0.08917,-0.0239 -0.135965,-0.0378 -0.375504,-0.11184 -0.760507,-0.22175 -1.140604,-0.32479 -0.760144,-0.20623 -1.526453,-0.39588 -2.303832,-0.56653 -1.01965,-0.22383 -2.041668,-0.41021 -3.059191,-0.56653 z m -9.985868,3.11965 c -0.229846,0 -0.449033,0.015 -0.664716,0.0453 1.129026,0.39651 2.233711,0.83515 3.316038,1.31432 -0.03299,-0.55539 -0.671363,-1.04365 -1.601361,-1.25389 -0.241473,-0.056 -0.493775,-0.0842 -0.770466,-0.0982 -0.09221,-0.005 -0.188586,-0.008 -0.279495,-0.007 z m 21.837436,1.82796 c -0.27222,0.0128 -0.441348,0.0988 -0.468323,0.26439 -0.01716,0.10597 0.02618,0.22932 0.120858,0.37011 0.187909,-0.0523 0.465035,-0.039 0.80068,0.0302 0.358125,0.0741 0.784147,0.21213 1.231247,0.41546 0.894151,0.40666 1.622559,0.95037 1.903504,1.37473 0.14486,-0.0392 0.237896,-0.11823 0.256798,-0.23415 0.06901,-0.42378 -0.832103,-1.20265 -2.024362,-1.74487 -0.447076,-0.20333 -0.873074,-0.34901 -1.231223,-0.423 -0.223755,-0.0462 -0.425853,-0.0606 -0.589179,-0.0529 z m -7.372302,0.2115 c -0.290034,0.0169 -0.498151,0.13928 -0.543859,0.34747 -0.02451,0.11162 0.0029,0.23671 0.06797,0.36257 0.157937,-0.0894 0.388871,-0.12666 0.657175,-0.0831 0.06343,0.0106 0.129752,0.0274 0.196393,0.0453 0.07602,0.021 0.148002,0.0514 0.226608,0.0831 0.434917,0.1743 0.775735,0.47004 0.921537,0.75536 0.103599,-0.0574 0.179691,-0.13882 0.203935,-0.24925 0.0796,-0.36258 -0.360977,-0.86602 -0.989508,-1.11794 -0.07853,-0.0317 -0.150588,-0.0547 -0.226607,-0.0756 -0.06647,-0.0184 -0.132895,-0.035 -0.196394,-0.0453 -0.111116,-0.0181 -0.220565,-0.0283 -0.31725,-0.0227 z m 10.446624,6.37523 c -0.157066,0.01 -0.278238,0.0757 -0.347489,0.1964 -0.07307,0.1274 -0.0743,0.29576 -0.01499,0.48343 0.102778,-0.0657 0.242779,-0.0842 0.400329,-0.0604 0.232312,0.0351 0.508471,0.15566 0.770466,0.37013 0.316283,0.25891 0.539459,0.58036 0.626935,0.86865 0.04619,-0.0305 0.08443,-0.0629 0.113316,-0.11329 0.184767,-0.32184 -0.08786,-0.93072 -0.611828,-1.35964 -0.261995,-0.21448 -0.538154,-0.34259 -0.770491,-0.37771 -0.05804,-0.009 -0.113823,-0.0109 -0.166154,-0.007 z m 9.283348,3.7768 c -0.188151,0 -0.359479,0.0533 -0.506103,0.17374 -0.246984,0.20285 -0.387952,0.55367 -0.415435,0.98194 0.06691,-0.15165 0.164269,-0.2755 0.279495,-0.37011 0.19545,-0.16057 0.439171,-0.20507 0.702471,-0.15861 0.579198,0.10248 1.260543,0.66824 1.76754,1.54847 0.444199,0.77136 0.653549,1.60636 0.611853,2.25853 0.293103,-0.67071 0.123178,-1.82257 -0.475888,-2.86282 -0.506997,-0.88023 -1.188343,-1.45355 -1.76754,-1.55604 -0.06582,-0.0116 -0.133668,-0.015 -0.196393,-0.015 z m -8.46756,4.4264 c -0.862777,-0.0203 -1.473373,0.58045 -1.525849,1.49561 0.275071,-0.67158 0.938337,-1.02214 1.775105,-0.83846 1.186215,0.2604 2.259477,1.50673 2.394475,2.77972 0.0145,0.13601 0.01499,0.26033 0.0075,0.38524 0.117377,-0.28213 0.1685,-0.61837 0.128423,-0.99707 -0.135021,-1.27301 -1.208284,-2.51178 -2.394499,-2.77218 -0.132556,-0.0291 -0.261971,-0.05 -0.385221,-0.0529 z m 15.235575,7.00973 c -0.0321,0.003 -0.06724,0.008 -0.09819,0.015 -0.477435,0.10181 -0.796136,0.71779 -0.936645,1.63911 0.172174,-0.58147 0.444707,-0.95731 0.808222,-1.03483 0.06188,-0.0133 0.126006,-0.0198 0.188852,-0.015 0.06282,0.005 0.123395,0.0242 0.188827,0.0453 0.916511,0.2938 1.968067,2.19025 2.485119,4.61525 0.305914,1.43465 0.369388,2.76761 0.219066,3.75412 0.296076,-0.99922 0.283266,-2.60481 -0.09064,-4.35841 -0.517076,-2.425 -1.568608,-4.32901 -2.485143,-4.62279 -0.06546,-0.021 -0.126006,-0.033 -0.188827,-0.0378 -0.03142,-0.002 -0.05854,-0.003 -0.09064,0 z m 5.34794,22.33596 c -0.785331,0.0159 -1.686082,1.37878 -2.08479,3.19517 -0.01861,0.0848 -0.03689,0.17304 -0.05289,0.25682 0.463754,-1.75244 1.394066,-3.0008 2.16035,-2.8326 0.76626,0.16821 1.090883,1.6891 0.778007,3.47465 0.02127,-0.0827 0.04938,-0.16448 0.06799,-0.24926 0.425297,-1.93749 0.107297,-3.65026 -0.710062,-3.82967 -0.05107,-0.0112 -0.106257,-0.0162 -0.158613,-0.0151 z M 73.6322,181.4723 c -0.941044,0.0664 -2.040339,1.03617 -2.598434,2.38693 -0.152812,0.36993 -0.246307,0.73675 -0.294578,1.08017 0.04605,-0.15645 0.100046,-0.30861 0.166179,-0.46833 0.637813,-1.54372 1.974665,-2.59813 2.983679,-2.36427 0.767252,0.17782 1.119527,1.05045 0.96686,2.13767 0.402262,-1.35612 0.07503,-2.53956 -0.830919,-2.74951 -0.126103,-0.0292 -0.258345,-0.0322 -0.392787,-0.0226 z m -0.838436,13.18856 c -1.157548,-0.0159 -2.578783,0.90136 -3.278257,2.15278 -0.225472,0.40332 -0.339223,0.79415 -0.370114,1.14814 0.06123,-0.175 0.132291,-0.36164 0.234149,-0.54386 0.746077,-1.33485 2.320269,-2.29032 3.512431,-2.13766 0.07445,0.01 0.150999,0.0205 0.219042,0.0378 0.686131,0.17717 1.026853,0.7502 0.966859,1.48805 0.348722,-1.01811 0.02647,-1.86901 -0.83846,-2.09234 -0.06797,-0.0176 -0.137028,-0.0281 -0.211501,-0.0378 -0.0745,-0.01 -0.156969,-0.014 -0.234149,-0.0151 z m 8.679085,1.04995 c -0.304972,-0.0501 -0.830145,0.43473 -1.223706,1.14059 -0.240965,0.43221 -0.368252,0.85135 -0.38522,1.1557 0.06396,-0.17509 0.144352,-0.36317 0.24928,-0.55141 0.393536,-0.70586 0.91871,-1.18319 1.223657,-1.13304 0.0203,0.003 0.04979,0.007 0.06799,0.0151 0.11595,0.0523 0.171617,0.19763 0.166178,0.40034 0.178144,-0.50376 0.174374,-0.91652 -0.03776,-1.01218 -0.01837,-0.008 -0.04008,-0.0118 -0.06043,-0.0151 z m -10.658125,6.34502 c -1.803845,-0.0521 -3.974976,1.15744 -5.378155,2.93834 -0.108916,-0.39937 -0.414952,-0.7103 -0.861109,-0.80823 -0.744385,-0.1634 -1.584175,0.32491 -1.888397,1.09527 -0.07353,0.18629 -0.105363,0.37461 -0.10575,0.55141 0.323656,-0.73477 1.133763,-1.19386 1.858183,-1.03484 0.446157,0.0979 0.759733,0.40886 0.868674,0.80823 1.496723,-1.89962 3.866688,-3.15475 5.733162,-2.91568 0.06792,0.009 0.131855,0.0119 0.196393,0.0226 0.06466,0.0108 0.126876,0.0293 0.188828,0.0453 1.324331,0.34196 1.957334,1.49289 1.752432,2.95345 0.493267,-1.74132 -0.11334,-3.17717 -1.616444,-3.56529 -0.062,-0.016 -0.12412,-0.0273 -0.188851,-0.0378 -0.06466,-0.0105 -0.136013,-0.0215 -0.203935,-0.0302 -0.116676,-0.0149 -0.234778,-0.0192 -0.355031,-0.0226 z m -6.586729,5.43858 c -0.01716,0.007 -0.03563,0.0164 -0.05289,0.0226 -0.02523,0.11496 -0.05277,0.22825 -0.06797,0.33991 0.03437,-0.11968 0.07599,-0.24023 0.120857,-0.36257 z m -9.449551,5.49146 c -0.568223,-0.021 -1.269244,0.19776 -1.895938,0.6345 -0.773053,0.53868 -1.212393,1.25034 -1.185926,1.82041 0.181286,-0.42021 0.536293,-0.85818 1.049961,-1.21612 0.716225,-0.49914 1.529402,-0.70711 2.130112,-0.60429 0.273041,0.0468 0.501462,0.15972 0.65715,0.33991 0.130599,0.15109 0.203983,0.32688 0.211501,0.52875 0.186047,-0.43175 0.176935,-0.84845 -0.07551,-1.14059 -0.155713,-0.1802 -0.384133,-0.29316 -0.657174,-0.33991 -0.07508,-0.0129 -0.152982,-0.0197 -0.234174,-0.0226 z m -13.082814,4.77387 c -0.245993,0.0905 -0.492567,0.17823 -0.740228,0.26437 0.01499,0.005 0.0307,0.0104 0.0453,0.0151 0.375697,0.005 0.662347,-0.0561 0.710061,-0.18129 0.01136,-0.0302 0,-0.0659 -0.01523,-0.0982 z m 1.367211,1.45028 c -1.017208,0.0447 -1.822143,0.30203 -1.888397,0.6194 -0.01064,0.049 -0.0024,0.0968 0.02272,0.14352 0.180102,0.01 0.356506,0.0227 0.536293,0.0302 0.428246,-0.1205 1.014816,-0.19936 1.646682,-0.18884 0.456503,0.008 0.871382,0.0597 1.208574,0.13597 0.09466,0.0217 0.175195,0.0496 0.256822,0.0755 0.230451,-0.005 0.457301,-0.007 0.687365,-0.0151 0.02369,-0.0323 0.04573,-0.0718 0.05289,-0.10576 0.0468,-0.22681 -0.299364,-0.43873 -0.861109,-0.56651 -0.337096,-0.0767 -0.759613,-0.12082 -1.21614,-0.12842 -0.152183,-0.003 -0.30033,-0.006 -0.445649,0 z"
         id="path9297" />
    </g>
  </g>
</svg>
