<?xml version="1.0" encoding="UTF-8" standalone="no"?>
<!-- Created with Inkscape (http://www.inkscape.org/) -->

<svg
   xmlns:dc="http://purl.org/dc/elements/1.1/"
   xmlns:cc="http://creativecommons.org/ns#"
   xmlns:rdf="http://www.w3.org/1999/02/22-rdf-syntax-ns#"
   xmlns:svg="http://www.w3.org/2000/svg"
   xmlns="http://www.w3.org/2000/svg"
   xmlns:sodipodi="http://sodipodi.sourceforge.net/DTD/sodipodi-0.dtd"
   xmlns:inkscape="http://www.inkscape.org/namespaces/inkscape"
   width="391.09222"
   height="391.09225"
   viewBox="0 0 103.47648 103.47649"
   version="1.1"
   id="svg23489"
   inkscape:version="0.48.5 r10040"
   sodipodi:docname="full_moon.svg">
  <defs
     id="defs23483">
    <filter
       color-interpolation-filters="sRGB"
       inkscape:collect="always"
       id="filter9270">
      <feGaussianBlur
         inkscape:collect="always"
         stdDeviation="13.123901"
         id="feGaussianBlur9272" />
    </filter>
  </defs>
  <sodipodi:namedview
     id="base"
     pagecolor="#7d848b"
     bordercolor="#666666"
     borderopacity="1.0"
     inkscape:pageopacity="0"
     inkscape:pageshadow="2"
     inkscape:zoom="2.660287"
     inkscape:cx="125.99141"
     inkscape:cy="111.3887"
     inkscape:document-units="px"
     inkscape:current-layer="layer1"
     showgrid="false"
     inkscape:pagecheckerboard="false"
     showborder="true"
     units="px"
     inkscape:window-width="1920"
     inkscape:window-height="1017"
     inkscape:window-x="-8"
     inkscape:window-y="-8"
     inkscape:window-maximized="1"
     inkscape:showpageshadow="false"
     guidetolerance="28"
     fit-margin-top="0"
     fit-margin-left="0"
     fit-margin-right="0"
     fit-margin-bottom="0">
    <inkscape:grid
       type="xygrid"
       id="grid24034"
       spacingx="1px"
       spacingy="1px"
       empspacing="8"
       visible="true"
       enabled="true"
       snapvisiblegridlinesonly="true"
       originx="2.6665029px"
       originy="-308.42959px" />
  </sodipodi:namedview>
  <metadata
     id="metadata23486">
    <rdf:RDF>
      <cc:Work
         rdf:about="">
        <dc:format>image/svg+xml</dc:format>
        <dc:type
           rdf:resource="http://purl.org/dc/dcmitype/StillImage" />
        <dc:title />
        <cc:license
           rdf:resource="" />
        <dc:creator>
          <cc:Agent>
            <dc:title>Robert Brooks</dc:title>
          </cc:Agent>
        </dc:creator>
      </cc:Work>
    </rdf:RDF>
  </metadata>
  <g
     inkscape:label="Layer 1"
     inkscape:groupmode="layer"
     id="layer1"
     transform="translate(0.70551223,-111.91817)">
    <path
       inkscape:connector-curvature="0"
       transform="matrix(0.26458334,0,0,0.26458334,-938.29218,243.68081)"
       style="color:#000000;fill:#ffd5ff;fill-opacity:1;fill-rule:nonzero;stroke:none;stroke-width:8;marker:none;visibility:visible;display:inline;overflow:visible;filter:url(#filter9270);enable-background:accumulate"
       d="m 3903.2294,-302.45441 c 0,90.60164 -73.4471,164.04877 -164.0487,164.04877 -90.6017,0 -164.0488,-73.44713 -164.0488,-164.04877 0,-90.60163 73.4471,-164.04876 164.0488,-164.04876 90.6016,0 164.0487,73.44713 164.0487,164.04876 z"
       id="glow"
       gds_switchable="glow" />
    <path
       inkscape:connector-curvature="0"
       style="color:#000000;fill:#ffd5ff;fill-opacity:1;fill-rule:nonzero;stroke:none;stroke-width:8;marker:none;visibility:visible;display:inline;overflow:visible;enable-background:accumulate"
       d="m 94.437291,163.65641 c 0,23.97169 -19.432879,43.40457 -43.404553,43.40457 -23.9717,0 -43.404579,-19.43288 -43.404579,-43.40457 0,-23.97168 19.432879,-43.40457 43.404579,-43.40457 23.971674,0 43.404553,19.43289 43.404553,43.40457 z"
       id="path9039" />
    <path
       style="color:#000000;fill:#f5ccf7;fill-opacity:1;fill-rule:nonzero;stroke:none;stroke-width:8;marker:none;visibility:visible;display:inline;overflow:visible;enable-background:accumulate"
       d="m 28.151907,126.77854 c -4.432115,2.75604 -8.333767,6.28247 -11.509375,10.40143 -1.079686,2.89982 -1.339453,4.77904 -1.339453,4.77904 0,0 5.611071,-2.99325 5.423958,-1.49655 -0.187087,1.49672 -0.188066,6.73537 -0.56224,8.04499 -0.374173,1.30962 3.744384,-0.56548 4.679818,0.74414 0.935435,1.30962 1.305243,1.87268 2.240677,2.62103 0.935461,0.74836 4.307761,0.56224 4.307761,0.56224 0,0 -0.749327,-0.75225 -0.56224,-2.24896 0.187087,-1.49671 1.86862,-2.61471 1.86862,-3.73724 0,-1.12253 -0.558006,-2.99926 -1.30638,-3.37344 -0.748348,-0.37417 -0.746231,-1.30524 -0.372084,-2.24069 0.374201,-0.93544 0.929138,-1.31044 1.116225,-2.05879 0.187086,-0.74836 -0.181902,-2.99699 -0.181902,-5.24206 0,-2.24506 -0.37711,-4.48348 -1.686718,-4.10931 -1.309635,0.37418 -1.86862,1.30751 -1.86862,0.37208 0,-0.82701 1.161283,-2.0892 -0.248047,-3.01791 z m 55.835366,8.63203 c 0.867463,1.30909 1.782869,2.69274 2.596198,4.86172 1.1226,2.99341 3.184234,6.73634 3.745521,8.60723 0.561261,1.87089 0.930248,1.31141 0.181901,2.62103 -0.748374,1.30962 -1.86862,2.24069 -1.86862,2.24069 0,0 -0.376132,-2.24166 -1.124479,-2.80293 -0.748374,-0.56126 -0.935223,-1.12335 -1.496563,-2.05879 -0.561234,-0.93544 -4.117552,-1.86862 -4.117552,-1.86862 0,0 -1.496562,1.49023 -1.496562,2.61276 0,1.12253 -2.43086,2.62103 -2.43086,2.62103 l -2.430859,0.19017 c 0,0 -1.125458,2.8018 -1.686719,3.73724 -0.561261,0.93545 -1.121251,1.31141 -2.430859,2.62103 -1.309635,1.30961 -6.358256,-0.37207 -6.358256,-0.37207 0,0 -2.250096,2.61471 -1.314661,3.73723 0.935434,1.12253 -0.181901,9.73058 -0.181901,10.66602 0,0.93545 0.935117,5.05287 2.993099,5.61413 l 1.496536,0 0.56224,2.80293 c 0.187166,0.93545 2.058802,0.56224 2.058802,0.56224 l 0.372083,2.43086 c 0,0 1.492303,0.006 2.240677,0.38034 0.748348,0.37417 0.193252,0.74818 0.380339,1.49655 0.187087,0.74835 -1.121463,4.30352 -0.934297,5.05188 0.187087,0.74835 2.800774,1.68039 3.175,2.80293 0.374174,1.12253 -1.118182,3.55616 -2.240703,5.61413 -0.329988,0.60497 -0.90596,1.31001 -1.521354,2.00918 13.29526,-7.41814 22.282891,-21.62876 22.282891,-37.93464 0,-10.78848 -3.93663,-20.65211 -10.451042,-28.24427 z m -50.163361,31.98978 c 0,0 -2.431838,-0.001 -2.993099,0.93431 -0.56126,0.93544 -0.937392,1.87365 -1.124479,3.18327 -0.187087,1.30963 -2.426652,1.87057 -3.175,2.9931 -0.748374,1.12253 -3.18733,1.49461 -3.935677,0.37207 -0.748348,-1.12253 -5.0496,-4.11352 -6.920521,-3.36517 C 13.80424,172.26629 10.251362,171.331 8.7546408,170.02138 8.4429617,169.74866 8.1518935,169.2332 7.903,168.50003 c 2.40874,21.69183 20.801092,38.56302 43.135366,38.56302 3.742796,0 7.374837,-0.47348 10.839635,-1.36426 -0.520223,-0.21899 -0.804756,-0.54014 -0.735859,-0.8847 0.187087,-0.93544 -3.744039,-0.18498 -7.672917,-0.37207 -3.928851,-0.18708 -7.293213,-2.62005 -10.847917,-2.05879 -3.554677,0.56127 -2.999105,-0.74722 -4.869974,-0.93431 -1.870974,-0.18708 -2.2461,-3.17695 -0.562239,-4.29948 1.683808,-1.12254 3.373437,-1.12448 3.373437,-1.12448 0,0 -0.748215,-1.68251 -1.496562,-2.43086 -0.748348,-0.74836 -2.811198,-2.43281 -2.811198,-3.55534 0,-1.12252 0.191955,-1.87365 2.811198,-3.18326 2.619243,-1.30962 4.299479,-1.86862 4.299479,-1.86862 0,0 -0.188039,-2.06074 -0.56224,-3.18327 -0.374173,-1.12253 -0.935249,-1.86749 -1.496562,-2.80293 -0.561235,-0.93544 -2.242847,-1.50158 -1.868594,-2.8112 0.374148,-1.30962 1.868594,-2.61276 1.868594,-2.61276 0,0 0.005,-1.3114 -0.181875,-2.62103 -0.187166,-1.30962 -3.00138,-0.56224 -3.00138,-0.56224 l -1.86862,-2.24069 -2.43086,-0.75241 z"
       id="path9068"
       gds_switchable="mare"
       inkscape:connector-curvature="0" />
    <path
       style="color:#000000;fill:#ffe1ff;fill-opacity:1;fill-rule:nonzero;stroke:none;stroke-width:8;marker:none;visibility:visible;display:inline;overflow:visible;enable-background:accumulate"
       d="m 52.624314,120.98404 c -0.94205,0 -1.87579,0.0316 -2.80292,0.0904 -0.0385,0.0411 -0.0661,0.08 -0.0661,0.12327 0,0.38507 1.59644,0.69025 3.56359,0.69025 1.96728,0 3.56362,-0.30518 3.56362,-0.69025 0,-0.003 1.3e-4,-0.006 0,-0.008 -0.3061,-0.0296 -0.60971,-0.0589 -0.91779,-0.0822 -0.0438,-0.003 -0.0884,-0.005 -0.13229,-0.008 -0.35261,-0.0255 -0.71162,-0.0485 -1.06659,-0.0657 -0.70993,-0.0344 -1.42327,-0.0493 -2.14148,-0.0493 z m -7.15201,0.58342 c -0.0442,0.007 -0.0881,0.0173 -0.13229,0.0247 -0.13189,0.0221 -0.26538,0.0424 -0.39687,0.0657 -0.17614,0.0312 -0.35373,0.0654 -0.52917,0.0986 -0.29477,0.0558 -0.58372,0.11088 -0.87643,0.17255 -0.18254,0.0385 -0.36404,0.0825 -0.54571,0.12327 -0.0933,0.021 -0.18801,0.0359 -0.28112,0.0575 -0.25363,0.0589 -0.50876,0.12569 -0.76067,0.18899 -0.11589,0.0291 -0.23175,0.0603 -0.34727,0.0904 -0.099,0.0258 -0.19894,0.0475 -0.29765,0.074 0.15869,0.28815 0.98541,0.40924 2.00919,0.26295 1.16991,-0.16708 2.16019,-0.61207 2.2076,-0.9943 0.007,-0.0602 -0.0122,-0.11446 -0.0496,-0.16434 z m 16.28013,1.49557 c -0.54977,0.007 -0.90617,0.14588 -0.89297,0.3862 0.0212,0.38459 0.97732,0.88817 2.13323,1.13398 1.15578,0.2457 2.07167,0.13808 2.05053,-0.24652 -0.0212,-0.38449 -0.96917,-0.89646 -2.12495,-1.14219 -0.43342,-0.0922 -0.83585,-0.13555 -1.16584,-0.13147 z m -6.70552,1.62699 c -0.40574,0.0224 -0.69453,0.19711 -0.69453,0.45196 0,0.33277 0.48866,0.68079 1.09141,0.78066 0.60274,0.0998 1.0914,-0.0863 1.0914,-0.41909 0,-0.33288 -0.48866,-0.68905 -1.0914,-0.78886 -0.0754,-0.0126 -0.14394,-0.021 -0.21498,-0.0247 -0.0622,-0.003 -0.12393,-0.003 -0.1819,0 z m -12.47677,0.92857 c -0.22368,-0.003 -0.45619,0.0165 -0.70279,0.0575 -1.31513,0.21786 -2.38125,0.98308 -2.38125,1.70921 0,0.72613 1.06612,1.13818 2.38125,0.92034 1.31514,-0.21784 2.38125,-0.98307 2.38125,-1.70921 0,-0.58999 -0.709,-0.97185 -1.67846,-0.97784 z m 22.787243,2.6624 c -0.211433,0.0139 -0.371423,0.10422 -0.421673,0.26295 -0.10048,0.31746 0.265463,0.79326 0.810293,1.06824 0.54483,0.27499 1.06535,0.24351 1.16581,-0.0739 0.10059,-0.31746 -0.25718,-0.80148 -0.80201,-1.07646 -0.27241,-0.13749 -0.54086,-0.1947 -0.75242,-0.18078 z m -33.370573,0.64916 c -0.062,-2e-4 -0.12404,0.002 -0.19016,0.008 -0.31739,0.0313 -0.67556,0.14385 -1.0418,0.32869 -0.9766,0.4929 -1.62705,1.3538 -1.44695,1.92284 0.18024,0.56905 1.12345,0.6326 2.10016,0.1397 0.97658,-0.49291 1.61888,-1.3538 1.43864,-1.92285 -0.0985,-0.31119 -0.42568,-0.47516 -0.85989,-0.4766 z m 42.308543,0.87925 c -0.24106,0.01 -0.4458,0.0929 -0.58703,0.27117 -0.45207,0.57048 -0.0874,1.83056 0.81026,2.81031 0.8977,0.97975 1.98713,1.31004 2.43914,0.73955 0.45201,-0.57048 0.0956,-1.82234 -0.802,-2.80209 -0.6172,-0.67358 -1.33001,-1.04053 -1.86037,-1.01894 z m -29.319143,5.49736 c -1.09593,0 -2.16207,0.88296 -2.38125,1.97215 -0.21918,1.08918 0.49157,1.97214 1.5875,1.97214 1.09593,0 2.16207,-0.88296 2.38125,-1.97214 0.21918,-1.08919 -0.49157,-1.97215 -1.5875,-1.97215 z m 22.886463,0 c -1.09593,0 -1.68823,0.88296 -1.32292,1.97215 0.36531,1.08918 1.5499,1.97214 2.64583,1.97214 1.09594,0 1.68823,-0.88296 1.32292,-1.97214 -0.36531,-1.08919 -1.5499,-1.97215 -2.64583,-1.97215 z m 14.51901,3.22117 c -0.0563,0.008 -0.11338,0.0258 -0.16537,0.0493 -0.83158,0.3752 -0.65196,2.55872 0.40513,4.87284 1.05717,2.31413 2.59141,3.88399 3.42308,3.50878 0.83158,-0.37521 0.65193,-2.55051 -0.40516,-4.86463 -0.92496,-2.02486 -2.21938,-3.48517 -3.08406,-3.5663 -0.0618,-0.006 -0.11732,-0.008 -0.17362,0 z m -56.058604,3.71421 c -1.49778,0 -3.36349,1.94252 -4.16718,4.33873 -0.8037,2.39621 -0.24101,4.33872 1.25677,4.33872 1.49778,0 3.36349,-1.94251 4.16718,-4.33872 0.803701,-2.39621 0.24101,-4.33873 -1.25677,-4.33873 z m 27.913551,3.05683 c -1.81457,0 -3.28248,1.44217 -3.28248,3.22117 0,1.77901 1.46791,3.22118 3.28248,3.22118 1.81456,0 3.28247,-1.44217 3.28247,-3.22118 0,-1.779 -1.46791,-3.22117 -3.28247,-3.22117 z m -37.967711,1.86532 c -0.39188,-0.009 -0.94388,0.80313 -1.27331,1.8982 -0.35139,1.16807 -0.31917,2.21384 0.0744,2.34192 0.39349,0.12808 0.99631,-0.71368 1.3477,-1.88176 0.3514,-1.16807 0.31917,-2.21384 -0.0744,-2.34192 -0.0246,-0.008 -0.0483,-0.0159 -0.0744,-0.0164 z m -5.61414,6.34374 c -0.036,-5.2e-4 -0.0711,0.003 -0.10748,0.008 -0.10623,0.41751 -0.20375,0.83517 -0.29765,1.25724 -0.0939,0.42208 -0.18323,0.84719 -0.2645897,1.27368 -0.16224,0.85034 -0.30223,1.71322 -0.41341,2.58023 l 0,0.008 c -0.0497,0.38958 -0.0931,0.7741 -0.13229,1.16685 -0.0156,0.15578 -0.0274,0.31211 -0.0414,0.46838 -0.0227,0.25417 -0.0479,0.50877 -0.0661,0.76421 -0.0167,0.23467 -0.0284,0.471 -0.0413,0.70669 -0.009,0.1609 -0.0177,0.32345 -0.0248,0.48482 -0.006,0.14539 -0.0117,0.28973 -0.0165,0.43551 -0.0112,0.33223 -0.021,0.66772 -0.0248,1.00251 10e-4,0.0928 0.007,0.18669 0.008,0.27939 0.65183,0.53191 1.4783897,-0.0733 2.1166697,-1.72563 0.87146,-2.25577 1.05804,-5.60816 0.41343,-7.48594 -0.28212,-0.82154 -0.68101,-1.21932 -1.10796,-1.22438 z m 49.667261,1.0929 c -0.76716,0 -1.38906,0.6475 -1.38906,1.44624 0,0.79874 0.6219,1.44624 1.38906,1.44624 0.76716,0 1.38907,-0.6475 1.38907,-1.44624 0,-0.79874 -0.62191,-1.44624 -1.38907,-1.44624 z m 31.154693,2.46519 c -0.75515,0 -1.36424,1.44216 -1.36424,3.22117 0,1.779 0.60909,3.22117 1.36424,3.22117 0.75515,0 1.36425,-1.44217 1.36425,-3.22117 0,-1.77901 -0.6091,-3.22117 -1.36425,-3.22117 z m -58.935943,0.59164 c -1.81456,0 -3.28247,1.44217 -3.28247,3.22117 0,1.77901 1.46791,3.22118 3.28247,3.22118 1.81457,0 3.28248,-1.44217 3.28248,-3.22118 0,-1.779 -1.46791,-3.22117 -3.28248,-3.22117 z M 17.765453,162.054 c -0.67162,0 -1.17612,1.60597 -1.12448,3.58274 0.0518,1.97677 0.63469,3.57451 1.30641,3.57451 0.67162,0 1.17613,-1.59774 1.12448,-3.57451 -0.0518,-1.97677 -0.63468,-3.58274 -1.30641,-3.58274 z m 44.069691,2.04611 c -2.83099,0.14261 -5.08497,2.47589 -5.08497,5.32479 0,2.94081 2.39876,5.3248 5.35781,5.3248 2.95905,0 5.357813,-2.38399 5.357813,-5.3248 0,-2.9408 -2.398763,-5.32479 -5.357813,-5.32479 -0.0925,0 -0.18153,-0.005 -0.27284,0 z m 19.364173,2.56379 c -0.93462,-0.0108 -1.91103,1.17102 -2.17453,2.64596 -0.2635,1.47494 0.2808,2.68445 1.21541,2.69527 0.9347,0.0108 1.91106,-1.17924 2.17456,-2.65418 0.2635,-1.47494 -0.28075,-2.67623 -1.21544,-2.68705 z m -70.403964,2.06253 c -0.14449,0.0316 -0.30089,0.44959 -0.38034,1.06003 -0.0978,0.75132 -0.0417,1.5102 0.12404,1.70098 0.1656,0.19078 0.37346,-0.25941 0.47127,-1.01072 0.0978,-0.75132 0.0417,-1.51842 -0.12403,-1.7092 -0.031,-0.0358 -0.0576,-0.0484 -0.0909,-0.0411 z m 2.81948,2.68706 c -0.0236,1.6e-4 -0.0442,0.004 -0.0661,0.008 -0.21119,0.0441 -0.3462,0.29846 -0.38036,0.76421 -0.0908,1.24199 0.59933,3.55607 1.54617,5.16867 0.94684,1.61259 1.78596,1.90759 1.8769,0.6656 0.0908,-1.242 -0.59933,-3.55608 -1.54617,-5.16867 -0.55478,-0.94488 -1.0776,-1.44045 -1.43039,-1.43802 z m 21.290681,0.85459 c -0.31324,0.0169 -0.61931,0.0988 -0.89297,0.26296 -1.09466,0.65664 -1.31017,2.29725 -0.47956,3.6649 0.83061,1.36766 2.39453,1.94676 3.48919,1.29011 1.09466,-0.65664 1.31017,-2.29725 0.47956,-3.6649 -0.62296,-1.02574 -1.65653,-1.60387 -2.59622,-1.55307 z m 55.612113,5.41519 c -0.2785,0.0147 -0.64958,0.53858 -0.8599,1.23259 -0.22431,0.74028 -0.17476,1.38719 0.10747,1.44624 0.28231,0.0591 0.68514,-0.49231 0.90954,-1.23259 0.22431,-0.74028 0.18301,-1.38718 -0.0992,-1.44624 -0.0178,-0.004 -0.0393,-0.001 -0.0579,0 z m -7.44966,0.70669 c -0.0634,-0.002 -0.13095,0.002 -0.19844,0.008 -1.08032,0.0955 -2.27955,1.23457 -2.67891,2.54736 -0.39944,1.31279 0.15171,2.29771 1.23195,2.20223 1.08025,-0.0955 2.27952,-1.23457 2.67891,-2.54736 0.37444,-1.23073 -0.0842,-2.17589 -1.03351,-2.21044 z m -30.815713,6.74638 c -2.42821,0 -4.3987,1.50103 -4.3987,3.35265 0,1.85162 1.97049,3.35265 4.3987,3.35265 2.42821,0 4.3987,-1.50103 4.3987,-3.35265 0,-1.85162 -1.97049,-3.35265 -4.3987,-3.35265 z m 30.600703,0.0904 c -0.059,0.003 -0.1203,0.011 -0.18187,0.0164 -1.69143,0.14948 -3.53796,1.70481 -4.48966,3.65669 -0.17328,-0.32891 -0.50559,-0.54234 -0.91779,-0.54234 -0.68773,0 -1.33612,0.58965 -1.45521,1.32298 -0.11901,0.73332 0.33753,1.3312 1.02526,1.3312 0.26763,0 0.53287,-0.0934 0.76068,-0.24652 -0.26453,1.94237 0.71705,3.29942 2.43914,3.14722 1.97088,-0.1742 4.1578,-2.25584 4.88654,-4.65098 0.68313,-2.24545 -0.1615,-3.97165 -1.89344,-4.03469 -0.0577,-0.002 -0.11456,-0.003 -0.17365,0 z m -61.027784,1.97215 c -0.94928,0.0345 -1.40804,0.97971 -1.03352,2.21045 0.39936,1.31278 1.59856,2.45188 2.67891,2.54735 1.08024,0.0955 1.63134,-0.88944 1.23195,-2.20223 -0.39939,-1.31278 -1.59866,-2.45188 -2.67891,-2.54735 -0.0675,-0.006 -0.13514,-0.0105 -0.19843,-0.008 z m 48.716404,10.72355 c -0.54938,0.0254 -1.22639,0.37002 -1.76112,0.94499 -0.77787,0.83631 -0.96422,1.84223 -0.41343,2.25153 0.55086,0.4093 1.62824,0.0639 2.40606,-0.77242 0.77783,-0.83632 0.9642,-1.84223 0.41342,-2.25154 -0.17212,-0.12791 -0.39521,-0.18411 -0.64493,-0.17256 z m -30.724743,1.35585 c -0.20645,-0.005 -0.37327,0.0502 -0.44648,0.15613 -0.14642,0.21196 0.12819,0.5692 0.61185,0.79707 0.48366,0.22787 0.99459,0.23663 1.14101,0.0247 0.14642,-0.21197 -0.12819,-0.56921 -0.61184,-0.79708 -0.24183,-0.11394 -0.48808,-0.17557 -0.69454,-0.18078 z m 21.91081,0.0575 c -0.0986,-0.003 -0.20058,0.001 -0.30594,0.008 -0.84246,0.0556 -1.54966,0.43433 -1.5875,0.83816 -0.0378,0.40383 0.61275,0.68009 1.45521,0.62451 0.84254,-0.0556 1.55803,-0.42611 1.59578,-0.82994 0.0331,-0.35336 -0.46757,-0.61821 -1.15755,-0.64095 z m -28.36828,1.52841 c -0.32575,-0.008 -0.58732,0.0711 -0.70281,0.23831 -0.0735,0.1064 -0.0754,0.23915 -0.0248,0.37799 0.77705,0.40152 1.56927,0.78691 2.37296,1.1422 0.1908,-0.0324 0.34224,-0.10684 0.42167,-0.22186 0.23106,-0.33436 -0.20444,-0.8978 -0.96737,-1.25725 -0.38145,-0.17972 -0.77401,-0.27116 -1.09966,-0.27939 z m 6.82128,1.70098 c -0.86702,-0.002 -1.47482,0.17655 -1.54618,0.50947 -0.114,0.53267 1.18735,1.26271 2.91042,1.62702 1.72318,0.36432 3.21807,0.22864 3.33211,-0.30404 0.11404,-0.53267 -1.1956,-1.2627 -2.91867,-1.62702 -0.64625,-0.13661 -1.25749,-0.20414 -1.77768,-0.20543 z m 13.56815,0.16435 c -1.07702,0.011 -1.94646,0.29156 -1.94302,0.62451 0.003,0.33295 0.88246,0.59441 1.95958,0.58343 1.07701,-0.011 1.94646,-0.29157 1.94302,-0.62452 -0.003,-0.33295 -0.88246,-0.5944 -1.95958,-0.58342 z m 4.98575,1.72563 c -0.58441,0.0241 -1.07346,0.18659 -1.09966,0.36156 -0.0262,0.17496 0.42431,0.29525 1.0087,0.27117 0.58446,-0.0241 1.0817,-0.1866 1.10797,-0.36156 0.0262,-0.17497 -0.4326,-0.29526 -1.01701,-0.27117 z m -7.8631,1.70097 c -0.38716,0.004 -0.75713,0.031 -1.09966,0.074 0.94327,0.0608 1.89378,0.0986 2.85253,0.0986 0.0413,0 0.0828,1.1e-4 0.12403,0 -0.52858,-0.11379 -1.1735,-0.17974 -1.8769,-0.17257 z"
       id="path9262"
       inkscape:connector-curvature="0" />
    <path
       style="color:#000000;fill:#edbeef;fill-opacity:1;fill-rule:nonzero;stroke:none;stroke-width:8;marker:none;visibility:visible;display:inline;overflow:visible;enable-background:accumulate"
       d="M 198.8125 31.5625 C 196.18536 31.60779 193.56582 31.677918 190.96875 31.84375 C 190.82316 31.999844 190.71875 32.147939 190.71875 32.3125 C 190.71875 33.776878 196.7526 34.9375 204.1875 34.9375 C 210.54037 34.9375 215.86416 34.097612 217.28125 32.9375 C 211.22303 32.135354 205.06067 31.684718 198.8125 31.5625 z M 174.53125 33.71875 C 174.36427 33.745207 174.19816 33.784531 174.03125 33.8125 C 173.53275 33.896406 173.02825 33.973681 172.53125 34.0625 C 171.86555 34.181177 171.19435 34.311264 170.53125 34.4375 C 169.41715 34.649909 168.32505 34.85923 167.21875 35.09375 C 166.52885 35.240018 165.84285 35.407804 165.15625 35.5625 C 164.80347 35.642626 164.44565 35.698856 164.09375 35.78125 C 163.13515 36.005376 162.17085 36.25932 161.21875 36.5 C 160.78075 36.61074 160.34285 36.72923 159.90625 36.84375 C 159.53204 36.94164 159.15435 37.024465 158.78125 37.125 C 159.38105 38.220798 162.5057 38.681309 166.375 38.125 C 170.7967 37.489624 174.53955 35.797243 174.71875 34.34375 C 174.74672 34.115089 174.67276 33.908331 174.53125 33.71875 z M 236.0625 39.40625 C 233.9846 39.432707 232.6376 39.96111 232.6875 40.875 C 232.76751 42.337602 236.3813 44.252672 240.75 45.1875 C 245.1183 46.121875 248.5799 45.712602 248.5 44.25 C 248.41999 42.787814 244.83705 40.840776 240.46875 39.90625 C 238.83065 39.555888 237.3096 39.390867 236.0625 39.40625 z M 210.71875 45.59375 C 209.18524 45.678789 208.09375 46.343278 208.09375 47.3125 C 208.09375 48.577999 209.94065 49.901559 212.21875 50.28125 C 214.49685 50.660979 216.34375 49.953113 216.34375 48.6875 C 216.34375 47.421547 214.49685 46.067116 212.21875 45.6875 C 211.93396 45.6395 211.67475 45.607734 211.40625 45.59375 C 211.17124 45.582411 210.93785 45.582411 210.71875 45.59375 z M 163.5625 49.125 C 162.7171 49.113661 161.83825 49.188033 160.90625 49.34375 C 155.93565 50.172109 151.90625 53.082352 151.90625 55.84375 C 151.90625 58.605148 155.93565 60.172185 160.90625 59.34375 C 165.87685 58.515315 169.90625 55.605148 169.90625 52.84375 C 169.90625 50.600033 167.2265 49.147753 163.5625 49.125 z M 249.6875 59.25 C 248.8884 59.302913 248.28365 59.646372 248.09375 60.25 C 247.71395 61.457257 249.09705 63.266742 251.15625 64.3125 C 253.21545 65.35822 255.1828 65.238469 255.5625 64.03125 C 255.9426 62.823955 254.59045 60.983182 252.53125 59.9375 C 251.50165 59.414602 250.487 59.197049 249.6875 59.25 z M 123.5625 61.71875 C 123.32821 61.717956 123.09365 61.727323 122.84375 61.75 C 121.64415 61.869055 120.29045 62.297046 118.90625 63 C 115.21515 64.874495 112.7568 68.148418 113.4375 70.3125 C 114.1186 72.476544 117.6836 72.718207 121.375 70.84375 C 125.066 68.969255 127.4936 65.695294 126.8125 63.53125 C 126.44029 62.347767 125.2035 61.72423 123.5625 61.71875 z M 283.46875 65.0625 C 282.55765 65.100295 281.7838 65.415892 281.25 66.09375 C 279.5415 68.263274 280.91988 73.055316 284.3125 76.78125 C 287.7053 80.507222 291.82285 81.763274 293.53125 79.59375 C 295.23965 77.424226 293.8926 72.663434 290.5 68.9375 C 288.1674 66.375887 285.47325 64.980371 283.46875 65.0625 z M 172.65625 85.96875 C 168.51415 85.96875 164.48465 89.326614 163.65625 93.46875 C 162.82785 97.610886 165.51415 100.96875 169.65625 100.96875 C 173.79835 100.96875 177.82785 97.610886 178.65625 93.46875 C 179.48465 89.326614 176.79835 85.96875 172.65625 85.96875 z M 259.15625 85.96875 C 255.01415 85.96875 252.77555 89.326614 254.15625 93.46875 C 255.53695 97.610886 260.01415 100.96875 264.15625 100.96875 C 268.29835 100.96875 270.53695 97.610886 269.15625 93.46875 C 267.77555 89.326614 263.29835 85.96875 259.15625 85.96875 z M 314.03125 98.21875 C 313.81846 98.248986 313.60275 98.317053 313.40625 98.40625 C 310.26325 99.833135 310.9422 108.13698 314.9375 116.9375 C 318.933 125.73802 324.7318 131.70817 327.875 130.28125 C 331.018 128.85436 330.33904 120.58177 326.34375 111.78125 C 322.84785 104.0808 317.9555 98.527273 314.6875 98.21875 C 314.45411 98.196073 314.24405 98.188514 314.03125 98.21875 z M 102.15625 112.34375 C 96.495349 112.34375 89.443853 119.73104 86.40625 128.84375 C 83.368651 137.95646 85.495349 145.34375 91.15625 145.34375 C 96.817151 145.34375 103.86865 137.95646 106.90625 128.84375 C 109.94385 119.73104 107.81715 112.34375 102.15625 112.34375 z M 207.65625 123.96875 C 200.79805 123.96875 195.25 129.45324 195.25 136.21875 C 195.25 142.98422 200.79805 148.46875 207.65625 148.46875 C 214.51445 148.46875 220.0625 142.98422 220.0625 136.21875 C 220.0625 129.45324 214.51445 123.96875 207.65625 123.96875 z M 64.15625 131.0625 C 62.675151 131.02848 60.588847 134.11674 59.34375 138.28125 C 58.01565 142.72337 58.137488 146.70047 59.625 147.1875 C 61.112199 147.67461 63.39065 144.4734 64.71875 140.03125 C 66.04685 135.5891 65.925012 131.61214 64.4375 131.125 C 64.344486 131.09476 64.254933 131.06439 64.15625 131.0625 z M 42.9375 155.1875 C 42.801513 155.1855 42.668761 155.19985 42.53125 155.21875 C 42.129747 156.80653 41.761151 158.39487 41.40625 160 C 41.051352 161.60517 40.713749 163.22184 40.40625 164.84375 C 39.793048 168.07755 39.26395 171.35907 38.84375 174.65625 L 38.84375 174.6875 C 38.655756 176.16907 38.492062 177.63137 38.34375 179.125 C 38.284752 179.7174 38.240187 180.31196 38.1875 180.90625 C 38.101516 181.87283 38.006325 182.84109 37.9375 183.8125 C 37.874495 184.70496 37.829968 185.60369 37.78125 186.5 C 37.748368 187.11191 37.714486 187.73007 37.6875 188.34375 C 37.663689 188.89666 37.642991 189.44558 37.625 190 C 37.57598 191.47046 37.541266 192.95695 37.53125 194.4375 C 37.53125 194.58339 37.531847 194.72888 37.53125 194.875 C 39.997849 196.92694 43.1435 194.61346 45.5625 188.3125 C 48.856101 179.73388 49.561302 166.9849 47.125 159.84375 C 46.058803 156.71948 44.551101 155.20674 42.9375 155.1875 z M 230.65625 159.34375 C 227.75675 159.34375 225.40625 161.80618 225.40625 164.84375 C 225.40625 167.88132 227.75675 170.34375 230.65625 170.34375 C 233.55575 170.34375 235.90625 167.88132 235.90625 164.84375 C 235.90625 161.80618 233.55575 159.34375 230.65625 159.34375 z M 348.40625 168.71875 C 345.55215 168.71875 343.25 174.20324 343.25 180.96875 C 343.25 187.73426 345.55215 193.21875 348.40625 193.21875 C 351.26035 193.21875 353.5625 187.73426 353.5625 180.96875 C 353.5625 174.20324 351.26035 168.71875 348.40625 168.71875 z M 125.65625 170.96875 C 118.79805 170.96875 113.25 176.45328 113.25 183.21875 C 113.25 189.98426 118.79805 195.46875 125.65625 195.46875 C 132.51445 195.46875 138.0625 189.98426 138.0625 183.21875 C 138.0625 176.45328 132.51445 170.96875 125.65625 170.96875 z M 69.8125 187.6875 C 67.274101 187.6875 65.367303 193.79491 65.5625 201.3125 C 65.758015 208.83009 67.961299 214.90625 70.5 214.90625 C 73.038399 214.90625 74.945201 208.83009 74.75 201.3125 C 74.554485 193.79491 72.351201 187.6875 69.8125 187.6875 z M 236.375 195.46875 C 225.6753 196.01111 217.15625 204.88447 217.15625 215.71875 C 217.15625 226.90252 226.22245 235.96875 237.40625 235.96875 C 248.59005 235.96875 257.65625 226.90252 257.65625 215.71875 C 257.65625 204.53498 248.59005 195.46875 237.40625 195.46875 C 237.05676 195.46875 236.7201 195.44985 236.375 195.46875 z M 309.5625 205.21875 C 306.0301 205.17755 302.33965 209.67209 301.34375 215.28125 C 300.34785 220.89037 302.4051 225.49013 305.9375 225.53125 C 309.4701 225.57245 313.16035 221.04662 314.15625 215.4375 C 315.15215 209.82834 313.0951 205.25987 309.5625 205.21875 z M 43.46875 213.0625 C 42.92265 213.18269 42.331549 214.77225 42.03125 217.09375 C 41.661537 219.951 41.873815 222.83694 42.5 223.5625 C 43.125897 224.28802 43.911552 222.576 44.28125 219.71875 C 44.650963 216.86154 44.438711 213.94431 43.8125 213.21875 C 43.695183 213.08269 43.594759 213.03453 43.46875 213.0625 z M 54.125 223.28125 C 54.035992 223.28185 53.958112 223.29738 53.875 223.3125 C 53.076904 223.48031 52.566495 224.44755 52.4375 226.21875 C 52.094206 230.94203 54.70265 239.74234 58.28125 245.875 C 61.859847 252.00762 65.031399 253.12949 65.375 248.40625 C 65.718294 243.68297 63.10985 234.88262 59.53125 228.75 C 57.434451 225.15665 55.458398 223.27203 54.125 223.28125 z M 134.59375 226.53125 C 133.40985 226.5955 132.25305 226.90695 131.21875 227.53125 C 127.08145 230.02846 126.26695 236.26763 129.40625 241.46875 C 132.54555 246.66991 138.45645 248.87221 142.59375 246.375 C 146.73105 243.87783 147.54555 237.63866 144.40625 232.4375 C 142.05175 228.53665 138.14535 226.33804 134.59375 226.53125 z M 344.78125 247.125 C 343.72865 247.18094 342.32615 249.17318 341.53125 251.8125 C 340.68345 254.62772 340.8708 257.08792 341.9375 257.3125 C 343.0044 257.537 344.52701 255.44026 345.375 252.625 C 346.2228 249.80974 346.06671 247.34958 345 247.125 C 344.93299 247.10988 344.85144 247.12122 344.78125 247.125 z M 316.625 249.8125 C 316.38572 249.80494 316.1301 249.82107 315.875 249.84375 C 311.792 250.20696 307.2594 254.5388 305.75 259.53125 C 304.2404 264.52374 306.32345 268.26935 310.40625 267.90625 C 314.48905 267.54304 319.02175 263.21124 320.53125 258.21875 C 321.94645 253.5383 320.21281 249.94388 316.625 249.8125 z M 200.15625 275.46875 C 190.97876 275.46875 183.53125 281.17711 183.53125 288.21875 C 183.53125 295.26039 190.97876 300.96875 200.15625 300.96875 C 209.33375 300.96875 216.78125 295.26039 216.78125 288.21875 C 216.78125 281.17711 209.33375 275.46875 200.15625 275.46875 z M 315.8125 275.8125 C 315.58939 275.82384 315.3577 275.85459 315.125 275.875 C 308.7323 276.44352 301.75325 282.35837 298.15625 289.78125 C 297.50135 288.53045 296.2453 287.71875 294.6875 287.71875 C 292.0882 287.71875 289.6375 289.9612 289.1875 292.75 C 288.7377 295.5388 290.4632 297.8125 293.0625 297.8125 C 294.0739 297.8125 295.0765 297.45724 295.9375 296.875 C 294.9377 304.26178 298.64755 309.42258 305.15625 308.84375 C 312.60525 308.18131 320.8708 300.26487 323.625 291.15625 C 326.2069 282.6169 323.01465 276.05224 316.46875 275.8125 C 316.25056 275.80494 316.0357 275.80116 315.8125 275.8125 z M 85.15625 283.3125 C 81.56845 283.44403 79.834601 287.03833 81.25 291.71875 C 82.7594 296.71124 87.291901 301.04315 91.375 301.40625 C 95.457801 301.76946 97.540752 298.02374 96.03125 293.03125 C 94.521748 288.03876 89.989051 283.70685 85.90625 283.34375 C 85.651056 283.32107 85.395453 283.30267 85.15625 283.3125 z M 269.28125 324.09375 C 267.20485 324.19051 264.646 325.50093 262.625 327.6875 C 259.6851 330.86793 258.9808 334.69344 261.0625 336.25 C 263.1444 337.80656 267.21645 336.49301 270.15625 333.3125 C 273.09605 330.13203 273.80045 326.3066 271.71875 324.75 C 271.06825 324.26357 270.22505 324.04983 269.28125 324.09375 z M 153.15625 329.25 C 152.37595 329.2311 151.74545 329.44089 151.46875 329.84375 C 150.91535 330.64985 151.95325 332.00843 153.78125 332.875 C 155.60925 333.74161 157.54035 333.77485 158.09375 332.96875 C 158.64715 332.16269 157.60925 330.80407 155.78125 329.9375 C 154.86725 329.50418 153.93655 329.26984 153.15625 329.25 z M 235.96875 329.46875 C 235.59624 329.45741 235.2106 329.47354 234.8125 329.5 C 231.6284 329.71128 228.9554 331.15173 228.8125 332.6875 C 228.66979 334.22327 231.1284 335.27385 234.3125 335.0625 C 237.4968 334.85122 240.20105 333.44202 240.34375 331.90625 C 240.46866 330.56248 238.57655 329.55523 235.96875 329.46875 z M 128.75 335.28125 C 127.5189 335.25101 126.53025 335.5519 126.09375 336.1875 C 125.22075 337.45905 126.8663 339.60177 129.75 340.96875 C 132.6334 342.33573 135.6896 342.39632 136.5625 341.125 C 137.4357 339.85345 135.78975 337.71073 132.90625 336.34375 C 131.46455 335.66026 129.9808 335.31251 128.75 335.28125 z M 154.53125 341.75 C 151.25435 341.74244 148.9571 342.42143 148.6875 343.6875 C 148.2566 345.71321 153.1751 348.48954 159.6875 349.875 C 166.2002 351.26046 171.85025 350.7445 172.28125 348.71875 C 172.71225 346.69304 167.7624 343.91671 161.25 342.53125 C 158.8076 342.01168 156.49735 341.75488 154.53125 341.75 z M 205.8125 342.375 C 201.7419 342.41657 198.45575 343.48378 198.46875 344.75 C 198.4816 346.01622 201.8041 347.01051 205.875 346.96875 C 209.9456 346.92718 213.23175 345.85993 213.21875 344.59375 C 213.2059 343.32753 209.8834 342.33327 205.8125 342.375 z M 224.65625 348.9375 C 222.44745 349.02896 220.599 349.64711 220.5 350.3125 C 220.40101 350.97792 222.1038 351.43533 224.3125 351.34375 C 226.5214 351.25229 228.4008 350.63417 228.5 349.96875 C 228.59899 349.30336 226.86505 348.84592 224.65625 348.9375 z M 239.625 352.71875 C 238.446 352.71119 237.0264 352.84765 235.5 353.15625 C 232.09609 353.84426 229.27404 355.13572 228.4375 356.28125 C 232.94651 355.36317 237.41499 354.27972 241.78125 353 C 241.22492 352.8323 240.49443 352.72534 239.625 352.71875 z M 194.9375 355.40625 C 189.0842 355.46634 184.23495 356.83008 183.15625 358.5625 C 188.18138 359.12433 193.26029 359.46342 198.40625 359.5625 C 201.29013 359.51308 204.15421 359.38392 207 359.1875 C 207.00715 359.13527 207.03159 359.08445 207.03125 359.03125 C 207.01008 356.9603 201.5956 355.33795 194.9375 355.40625 z "
       transform="matrix(0.26458333,0,0,0.26458333,-0.70551319,111.91817)"
       id="path9047" />
    <path
       style="opacity:0.44690265;color:#000000;fill:#e297e5;fill-opacity:1;fill-rule:nonzero;stroke:none;stroke-width:8;marker:none;visibility:visible;display:inline;overflow:visible;enable-background:accumulate"
       d="M 199.78125 31.5625 C 196.82627 31.595654 193.8854 31.688763 190.96875 31.875 C 190.82316 32.031094 190.71875 32.178811 190.71875 32.34375 C 190.71875 32.927649 191.71865 33.44198 193.34375 33.875 C 196.06875 33.738559 198.8028 33.65625 201.5625 33.65625 C 204.2769 33.65625 206.97305 33.712222 209.65625 33.84375 C 210.99785 33.908758 212.3549 33.996238 213.6875 34.09375 C 213.83279 34.105089 213.97941 34.117441 214.125 34.125 C 215.66098 33.796911 216.78245 33.392115 217.3125 32.9375 C 211.55573 32.174162 205.71045 31.712718 199.78125 31.5625 z M 174.53125 33.75 C 174.36427 33.776457 174.19815 33.815781 174.03125 33.84375 C 173.53275 33.927656 173.02825 34.004931 172.53125 34.09375 C 171.86555 34.212427 171.19435 34.342514 170.53125 34.46875 C 169.41715 34.681159 168.32505 34.89048 167.21875 35.125 C 166.52885 35.271268 165.84285 35.438676 165.15625 35.59375 C 164.80347 35.673876 164.44565 35.730106 164.09375 35.8125 C 163.13515 36.036626 162.17085 36.29057 161.21875 36.53125 C 160.78075 36.64199 160.34285 36.76048 159.90625 36.875 C 159.53204 36.97289 159.15435 37.055715 158.78125 37.15625 C 159.15183 37.833466 160.49631 38.273028 162.375 38.375 C 162.9489 38.228732 163.52005 38.071484 164.09375 37.9375 C 164.44566 37.855484 164.80365 37.798498 165.15625 37.71875 C 165.84285 37.563789 166.52885 37.396381 167.21875 37.25 C 168.32505 37.015669 169.41715 36.806159 170.53125 36.59375 C 171.19435 36.467514 171.86555 36.337427 172.53125 36.21875 C 172.65545 36.196073 172.78122 36.177415 172.90625 36.15625 C 173.95675 35.575261 174.64615 34.963813 174.71875 34.375 C 174.74672 34.146339 174.67276 33.939581 174.53125 33.75 z M 236.0625 39.4375 C 233.9846 39.463957 232.6376 39.99236 232.6875 40.90625 C 232.70753 41.272108 232.95662 41.662702 233.375 42.0625 C 233.9627 41.750689 234.8937 41.577391 236.0625 41.5625 C 237.3097 41.547382 238.83065 41.712176 240.46875 42.0625 C 243.74495 42.763413 246.5663 44.041723 247.8125 45.25 C 248.2665 45.013402 248.5218 44.681275 248.5 44.28125 C 248.41999 42.819064 244.83705 40.872026 240.46875 39.9375 C 238.83065 39.587138 237.3097 39.422117 236.0625 39.4375 z M 210.71875 45.625 C 209.18525 45.710039 208.09375 46.374452 208.09375 47.34375 C 208.09375 47.733533 208.28454 48.128397 208.59375 48.5 C 209.05445 48.086671 209.79305 47.801099 210.71875 47.75 C 210.93785 47.738661 211.17115 47.738661 211.40625 47.75 C 211.67475 47.765118 211.93375 47.79575 212.21875 47.84375 C 213.79505 48.106427 215.14935 48.843607 215.84375 49.6875 C 216.14687 49.420287 216.34375 49.104451 216.34375 48.71875 C 216.34375 47.452759 214.49685 46.098366 212.21875 45.71875 C 211.93396 45.67075 211.67475 45.638984 211.40625 45.625 C 211.17124 45.613661 210.93785 45.613661 210.71875 45.625 z M 163.5625 49.15625 C 162.7171 49.144911 161.83825 49.219283 160.90625 49.375 C 155.93565 50.203397 151.90625 53.113602 151.90625 55.875 C 151.90625 56.244638 151.98822 56.582231 152.125 56.90625 C 153.0047 54.510748 156.59465 52.218602 160.90625 51.5 C 161.83826 51.344661 162.7171 51.27747 163.5625 51.28125 C 166.63441 51.300148 168.99851 52.316038 169.6875 53.96875 C 169.82201 53.602514 169.90625 53.241085 169.90625 52.875 C 169.90625 50.631283 167.2266 49.179154 163.5625 49.15625 z M 249.6875 59.28125 C 248.88842 59.334163 248.28365 59.677622 248.09375 60.28125 C 247.94344 60.759133 248.07184 61.324354 248.40625 61.90625 C 248.70064 61.612203 249.14521 61.442156 249.6875 61.40625 C 250.4871 61.353337 251.50163 61.571041 252.53125 62.09375 C 253.77422 62.725007 254.7477 63.634822 255.25 64.53125 C 255.38153 64.395943 255.50278 64.251552 255.5625 64.0625 C 255.94272 62.855205 254.59045 61.01447 252.53125 59.96875 C 251.50163 59.445852 250.4871 59.228299 249.6875 59.28125 z M 123.5625 61.75 C 123.32821 61.749206 123.09365 61.758573 122.84375 61.78125 C 121.64415 61.900305 120.29045 62.328296 118.90625 63.03125 C 115.21515 64.905745 112.7568 68.179668 113.4375 70.34375 C 113.46244 70.422742 113.49825 70.488421 113.53125 70.5625 C 114.15645 68.66975 116.19455 66.533359 118.90625 65.15625 C 120.29045 64.453333 121.64415 64.025305 122.84375 63.90625 C 123.09365 63.883573 123.3282 63.875 123.5625 63.875 C 125.1134 63.87878 126.27845 64.439918 126.71875 65.5 C 126.95104 64.804151 126.99592 64.146135 126.8125 63.5625 C 126.44029 62.379054 125.2036 61.75548 123.5625 61.75 z M 283.46875 65.09375 C 282.55766 65.131545 281.78382 65.447142 281.25 66.125 C 280.57551 66.981403 280.37216 68.240659 280.59375 69.6875 C 280.70562 69.13327 280.93539 68.64942 281.25 68.25 C 281.78371 67.572142 282.55766 67.256545 283.46875 67.21875 C 285.47326 67.136734 288.16731 68.532137 290.5 71.09375 C 292.54389 73.3386 293.84949 75.953126 294.1875 78.15625 C 294.67351 75.70757 293.25641 71.996076 290.5 68.96875 C 288.16732 66.407137 285.47326 65.011621 283.46875 65.09375 z M 172.65625 86 C 168.51415 86 164.48465 89.357864 163.65625 93.5 C 163.48216 94.370652 163.47594 95.191301 163.59375 95.96875 C 163.61189 95.851207 163.63327 95.743677 163.65625 95.625 C 164.48465 91.482864 168.51415 88.125 172.65625 88.125 C 175.92065 88.125 178.27055 90.213554 178.71875 93.125 C 179.31935 89.155211 176.67395 86 172.65625 86 z M 259.15625 86 C 255.45356 86 253.27868 88.690637 253.84375 92.21875 C 254.26895 89.780312 256.23437 88.125 259.15625 88.125 C 263.29835 88.125 267.77555 91.482864 269.15625 95.625 C 269.30365 96.067545 269.40147 96.484757 269.46875 96.90625 C 269.65357 95.880562 269.56671 94.732277 269.15625 93.5 C 267.77555 89.357864 263.29835 86 259.15625 86 z M 314.03125 98.25 C 313.81846 98.280236 313.60275 98.348303 313.40625 98.4375 C 311.89024 99.125752 311.26314 101.42163 311.46875 104.59375 C 311.61729 102.53066 312.25194 101.08653 313.40625 100.5625 C 313.60279 100.4733 313.81846 100.40524 314.03125 100.375 C 314.24404 100.34476 314.454 100.35232 314.6875 100.375 C 317.95562 100.68341 322.84784 106.23705 326.34375 113.9375 C 328.41195 118.49319 329.59189 122.88489 329.8125 126.28125 C 330.068 122.73598 328.87172 117.38099 326.34375 111.8125 C 322.84784 104.11205 317.95562 98.558523 314.6875 98.25 C 314.45393 98.227323 314.24408 98.219764 314.03125 98.25 z M 102.15625 112.375 C 96.495349 112.375 89.443853 119.76229 86.40625 128.875 C 85.364253 132.0009 84.955003 134.91494 85.0625 137.40625 C 85.201889 135.4322 85.646852 133.27819 86.40625 131 C 89.443853 121.88729 96.495349 114.5 102.15625 114.5 C 105.86715 114.5 108.0357 117.68353 108.25 122.4375 C 108.6679 116.5154 106.40195 112.375 102.15625 112.375 z M 207.65625 124 C 200.79805 124 195.25 129.48449 195.25 136.25 C 195.25 136.60943 195.28264 136.96081 195.3125 137.3125 C 195.8596 131.0468 201.16255 126.125 207.65625 126.125 C 214.14995 126.125 219.4529 131.0468 220 137.3125 C 220.03099 136.96063 220.0625 136.60955 220.0625 136.25 C 220.0625 129.48449 214.51445 124 207.65625 124 z M 64.15625 131.09375 C 62.675151 131.05973 60.588847 134.14799 59.34375 138.3125 C 58.584749 140.85125 58.327499 143.20475 58.5 144.875 C 58.607187 143.54117 58.867533 142.03042 59.34375 140.4375 C 60.588847 136.27299 62.675151 133.18473 64.15625 133.21875 C 64.255236 133.22075 64.344599 133.2529 64.4375 133.28125 C 65.077801 133.49101 65.4351 134.36328 65.5625 135.625 C 65.759187 133.22621 65.39499 131.4698 64.4375 131.15625 C 64.344486 131.12601 64.254933 131.09564 64.15625 131.09375 z M 42.9375 155.21875 C 42.801513 155.21675 42.668768 155.2311 42.53125 155.25 C 42.129755 156.83778 41.761151 158.42612 41.40625 160.03125 C 41.051352 161.63642 40.713748 163.25309 40.40625 164.875 C 39.793048 168.1088 39.26395 171.39032 38.84375 174.6875 L 38.84375 174.71875 C 38.655756 176.20032 38.492062 177.66262 38.34375 179.15625 C 38.284752 179.74865 38.2403 180.34321 38.1875 180.9375 C 38.101516 181.90408 38.006401 182.87234 37.9375 183.84375 C 37.874495 184.73621 37.829968 185.63494 37.78125 186.53125 C 37.748368 187.14316 37.714486 187.76132 37.6875 188.375 C 37.663311 188.92791 37.642991 189.47683 37.625 190.03125 C 37.57598 191.50171 37.541266 192.9882 37.53125 194.46875 C 37.53125 194.61464 37.531847 194.76013 37.53125 194.90625 C 37.543344 194.91759 37.551539 194.92994 37.5625 194.9375 C 37.579508 194.00864 37.594121 193.07789 37.625 192.15625 C 37.643142 191.60183 37.665503 191.05294 37.6875 190.5 C 37.713579 189.88632 37.747272 189.26816 37.78125 188.65625 C 37.83027 187.7599 37.874306 186.86117 37.9375 185.96875 C 38.006514 184.9973 38.102083 184.02908 38.1875 183.0625 C 38.240489 182.46821 38.284449 181.87369 38.34375 181.28125 C 38.49187 179.78766 38.655941 178.32529 38.84375 176.84375 L 38.84375 176.8125 C 39.263951 173.51528 39.793048 170.2338 40.40625 167 C 40.713752 165.37809 41.051352 163.76138 41.40625 162.15625 C 41.761148 160.55112 42.129751 158.96278 42.53125 157.375 C 42.668749 157.3561 42.801494 157.33997 42.9375 157.34375 C 44.551101 157.36265 46.058803 158.87573 47.125 162 C 48.020502 164.62503 48.488501 168.00137 48.5625 171.65625 C 48.653511 167.20408 48.190797 162.99927 47.125 159.875 C 46.058697 156.75073 44.5512 155.23799 42.9375 155.21875 z M 230.65625 159.375 C 227.75675 159.375 225.40625 161.83743 225.40625 164.875 C 225.40625 165.22158 225.44115 165.54611 225.5 165.875 C 225.9895 163.36872 228.11915 161.5 230.65625 161.5 C 233.19335 161.5 235.323 163.36872 235.8125 165.875 C 235.8715 165.54618 235.90625 165.22166 235.90625 164.875 C 235.90625 161.83743 233.55575 159.375 230.65625 159.375 z M 348.40625 168.75 C 345.55218 168.75 343.25 174.23449 343.25 181 C 343.25 181.29594 343.27369 181.5842 343.28125 181.875 C 343.54468 175.69785 345.73053 170.875 348.40625 170.875 C 351.08193 170.875 353.26785 175.69785 353.53125 181.875 C 353.54259 181.58435 353.5625 181.29605 353.5625 181 C 353.5625 174.23449 351.26032 168.75 348.40625 168.75 z M 125.65625 171 C 118.79805 171 113.25 176.48453 113.25 183.25 C 113.25 183.60943 113.28264 183.96081 113.3125 184.3125 C 113.8596 178.04676 119.16255 173.125 125.65625 173.125 C 132.14995 173.125 137.4529 178.04676 138 184.3125 C 138.03099 183.96063 138.0625 183.60958 138.0625 183.25 C 138.0625 176.48453 132.51445 171 125.65625 171 z M 69.8125 187.71875 C 67.274101 187.71875 65.367303 193.82616 65.5625 201.34375 C 65.5625 201.46129 65.589593 201.57071 65.59375 201.6875 C 65.718361 195.01678 67.4797 189.84375 69.8125 189.84375 C 72.311501 189.84375 74.464951 195.76966 74.71875 203.125 C 74.729711 202.53762 74.766025 201.95244 74.75 201.34375 C 74.554409 193.82616 72.351299 187.71875 69.8125 187.71875 z M 236.375 195.5 C 225.6752 196.04236 217.15625 204.91572 217.15625 215.75 C 217.15625 216.1628 217.16633 216.56207 217.1875 216.96875 C 217.6512 206.55396 225.9781 198.15202 236.375 197.625 C 236.72011 197.6061 237.05665 197.625 237.40625 197.625 C 248.21945 197.625 257.05138 206.11115 257.625 216.78125 C 257.6439 216.43618 257.65625 216.09949 257.65625 215.75 C 257.65625 204.56623 248.59005 195.5 237.40625 195.5 C 237.05676 195.5 236.72009 195.4811 236.375 195.5 z M 309.5625 205.25 C 306.03012 205.2088 302.33966 209.70334 301.34375 215.3125 C 301.10526 216.65658 301.06592 217.94564 301.15625 219.125 C 301.19518 218.57013 301.24019 218.01788 301.34375 217.4375 C 302.33965 211.82838 306.03012 207.33377 309.5625 207.375 C 312.24861 207.40524 314.05738 210.04768 314.34375 213.78125 C 314.69222 208.96938 312.73402 205.28693 309.5625 205.25 z M 43.46875 213.09375 C 42.92265 213.21394 42.331549 214.8035 42.03125 217.125 C 41.85913 218.45471 41.811806 219.78475 41.875 220.90625 C 41.904102 220.3634 41.959023 219.80688 42.03125 219.25 C 42.331533 216.9285 42.92265 215.33894 43.46875 215.21875 C 43.594646 215.19229 43.695372 215.2378 43.8125 215.375 C 44.149294 215.76509 44.366301 216.78664 44.4375 218.09375 C 44.557689 215.84342 44.316708 213.83413 43.8125 213.25 C 43.695183 213.11394 43.594759 213.06578 43.46875 213.09375 z M 54.125 223.3125 C 54.035992 223.3131 53.958112 223.32863 53.875 223.34375 C 53.076798 223.51156 52.566601 224.4788 52.4375 226.25 C 52.392486 226.87392 52.384511 227.56185 52.4375 228.3125 C 52.574583 226.58473 53.087199 225.63437 53.875 225.46875 C 53.957998 225.45363 54.035803 225.4375 54.125 225.4375 C 55.4583 225.42994 57.434451 227.3129 59.53125 230.90625 C 62.630852 236.21796 65.0185 243.50575 65.375 248.4375 C 65.718294 243.71422 63.10985 234.91391 59.53125 228.78125 C 57.434451 225.1879 55.458398 223.30332 54.125 223.3125 z M 134.59375 226.5625 C 133.40985 226.62675 132.25305 226.9382 131.21875 227.5625 C 128.48725 229.21117 127.2158 232.49603 127.5625 236.03125 C 127.80772 233.34174 129.04185 231.00141 131.21875 229.6875 C 132.25305 229.0632 133.40985 228.75175 134.59375 228.6875 C 138.14535 228.49437 142.05175 230.6929 144.40625 234.59375 C 145.46685 236.35097 146.0676 238.22142 146.25 240.03125 C 146.4674 237.61258 145.89103 234.92881 144.40625 232.46875 C 142.05175 228.5679 138.14535 226.36929 134.59375 226.5625 z M 344.78125 247.15625 C 343.72865 247.21219 342.32616 249.20443 341.53125 251.84375 C 341.04456 253.4598 340.92775 254.94242 341.09375 255.96875 C 341.17879 255.3387 341.31941 254.67254 341.53125 253.96875 C 342.32616 251.32947 343.72865 249.33719 344.78125 249.28125 C 344.85117 249.27747 344.9331 249.26613 345 249.28125 C 345.42448 249.37082 345.71366 249.82071 345.84375 250.5 C 346.06901 248.69153 345.77681 247.31979 345 247.15625 C 344.9331 247.14113 344.85155 247.15247 344.78125 247.15625 z M 316.625 249.84375 C 316.38576 249.83619 316.13012 249.85232 315.875 249.875 C 311.7919 250.23821 307.25943 254.57005 305.75 259.5625 C 305.29381 261.07102 305.18788 262.4544 305.34375 263.65625 C 305.41972 263.02851 305.54402 262.36902 305.75 261.6875 C 307.25931 256.69501 311.7919 252.36321 315.875 252 C 316.13012 251.97732 316.38568 251.96006 316.625 251.96875 C 319.04031 252.05719 320.5978 253.71678 320.9375 256.21875 C 321.35468 252.572 319.66967 249.95528 316.625 249.84375 z M 200.15625 275.5 C 190.97875 275.5 183.53125 281.20836 183.53125 288.25 C 183.53125 288.60603 183.55671 288.96395 183.59375 289.3125 C 184.29475 282.76541 191.44265 277.625 200.15625 277.625 C 208.86985 277.625 216.01775 282.76541 216.71875 289.3125 C 216.75579 288.96403 216.78125 288.60596 216.78125 288.25 C 216.78125 281.20836 209.33375 275.5 200.15625 275.5 z M 315.8125 275.84375 C 315.58951 275.85509 315.35771 275.88584 315.125 275.90625 C 308.73219 276.47477 301.75327 282.38962 298.15625 289.8125 C 297.50137 288.5617 296.24538 287.75 294.6875 287.75 C 292.08817 287.75 289.6376 289.99245 289.1875 292.78125 C 289.07865 293.45559 289.12187 294.09823 289.25 294.6875 C 289.79089 292.00301 292.1579 289.875 294.6875 289.875 C 296.24542 289.875 297.50133 290.6867 298.15625 291.9375 C 301.75326 284.51462 308.73231 278.59973 315.125 278.03125 C 315.35782 278.01235 315.58958 277.98009 315.8125 277.96875 C 316.03587 277.95741 316.25067 277.96119 316.46875 277.96875 C 321.13065 278.13958 324.08324 281.51578 324.46875 286.53125 C 324.83839 280.36956 321.76005 276.03753 316.46875 275.84375 C 316.25067 275.83619 316.03579 275.83241 315.8125 275.84375 z M 85.15625 283.34375 C 82.111549 283.45525 80.426449 286.072 80.84375 289.71875 C 81.18353 287.21682 82.741052 285.5573 85.15625 285.46875 C 85.395456 285.45741 85.651151 285.47732 85.90625 285.5 C 89.989051 285.86321 94.521748 290.19501 96.03125 295.1875 C 96.237348 295.86902 96.36129 296.52847 96.4375 297.15625 C 96.593481 295.9544 96.487454 294.57099 96.03125 293.0625 C 94.521748 288.07001 89.989051 283.73806 85.90625 283.375 C 85.651056 283.35232 85.395453 283.33392 85.15625 283.34375 z M 295.9375 299.03125 C 295.88534 299.06527 295.83416 299.09174 295.78125 299.125 C 295.78125 299.52646 295.78226 299.92937 295.8125 300.3125 C 295.83896 299.88866 295.87741 299.47164 295.9375 299.03125 z M 269.28125 324.125 C 267.20485 324.22176 264.64599 325.53218 262.625 327.71875 C 260.4436 330.07861 259.4949 332.7765 260 334.65625 C 260.29669 333.12384 261.17551 331.4118 262.625 329.84375 C 264.64599 327.65718 267.20485 326.34676 269.28125 326.25 C 270.22504 326.20616 271.06826 326.41971 271.71875 326.90625 C 272.26425 327.31414 272.63981 327.86424 272.8125 328.53125 C 273.11637 326.95689 272.7735 325.56985 271.71875 324.78125 C 271.06826 324.29482 270.22504 324.08108 269.28125 324.125 z M 153.15625 329.28125 C 152.37595 329.26235 151.74545 329.47214 151.46875 329.875 C 151.15055 330.33856 151.3556 330.99465 151.9375 331.625 C 152.25838 331.46664 152.66855 331.39453 153.15625 331.40625 C 153.93655 331.42515 154.86725 331.66062 155.78125 332.09375 C 156.53975 332.45318 157.16455 332.88938 157.59375 333.34375 C 157.79664 333.2504 157.98535 333.15761 158.09375 333 C 158.64715 332.1939 157.60925 330.83532 155.78125 329.96875 C 154.86725 329.53546 153.93655 329.30105 153.15625 329.28125 z M 235.96875 329.5 C 235.59624 329.48866 235.2107 329.50479 234.8125 329.53125 C 231.6284 329.74253 228.9555 331.18298 228.8125 332.71875 C 228.77251 333.1492 228.95384 333.5379 229.28125 333.875 C 230.17914 332.7473 232.3203 331.8216 234.8125 331.65625 C 235.2106 331.62979 235.59605 331.61253 235.96875 331.625 C 237.74905 331.68396 239.1758 332.17484 239.875 332.90625 C 240.12649 332.59557 240.31275 332.27119 240.34375 331.9375 C 240.46866 330.59369 238.57655 329.58644 235.96875 329.5 z M 128.75 335.3125 C 127.5188 335.28226 126.53025 335.58315 126.09375 336.21875 C 125.72706 336.75287 125.8228 337.43678 126.25 338.15625 C 126.7417 337.65127 127.6492 337.41044 128.75 337.4375 C 129.9808 337.46774 131.46455 337.81643 132.90625 338.5 C 134.57855 339.29279 135.81645 340.35038 136.40625 341.34375 C 136.46427 341.28403 136.51631 341.22353 136.5625 341.15625 C 137.4358 339.8847 135.78975 337.74198 132.90625 336.375 C 131.46455 335.69151 129.9808 335.34376 128.75 335.3125 z M 154.53125 341.78125 C 151.25435 341.77369 148.9572 342.45268 148.6875 343.71875 C 148.59449 344.15411 148.76042 344.64156 149.125 345.125 C 149.9743 344.32317 151.94265 343.90028 154.53125 343.90625 C 156.49735 343.91003 158.8075 344.16778 161.25 344.6875 C 166.3627 345.77521 170.50485 347.70277 171.84375 349.46875 C 172.07014 349.25596 172.22475 349.01578 172.28125 348.75 C 172.71225 346.72429 167.7624 343.94796 161.25 342.5625 C 158.8075 342.04293 156.49735 341.78613 154.53125 341.78125 z M 205.8125 342.40625 C 201.7419 342.44782 198.45575 343.51503 198.46875 344.78125 C 198.46875 345.16155 198.81216 345.50197 199.34375 345.8125 C 200.57435 345.07383 202.9918 344.56035 205.8125 344.53125 C 208.6608 344.50101 211.10555 344.99535 212.34375 345.71875 C 212.88905 345.39144 213.22275 345.01376 213.21875 344.625 C 213.2059 343.35878 209.8835 342.36452 205.8125 342.40625 z M 224.65625 348.96875 C 222.44745 349.06021 220.599 349.67836 220.5 350.34375 C 220.428 350.82674 221.32515 351.17908 222.65625 351.3125 C 223.25545 351.18551 223.92955 351.12399 224.65625 351.09375 C 225.24575 351.07107 225.78515 351.07965 226.28125 351.125 C 227.53645 350.86686 228.4326 350.45192 228.5 350 C 228.59899 349.33461 226.86505 348.87717 224.65625 348.96875 z M 239.625 352.75 C 238.4459 352.74244 237.0264 352.8789 235.5 353.1875 C 232.13074 353.86849 229.33734 355.14441 228.46875 356.28125 C 232.94764 355.36843 237.38071 354.26972 241.71875 353 C 241.17051 352.84478 240.46004 352.75633 239.625 352.75 z M 194.9375 355.4375 C 189.08419 355.49759 184.23495 356.86133 183.15625 358.59375 C 184.13015 358.7026 185.11595 358.78278 186.09375 358.875 C 188.28545 358.10118 191.4227 357.59856 194.9375 357.5625 C 199.35396 357.51733 203.17291 358.23226 205.28125 359.3125 C 205.85864 359.27872 206.42423 359.22724 207 359.1875 C 207.00465 359.14519 207.03152 359.10547 207.03125 359.0625 C 207.01008 356.99155 201.5957 355.3692 194.9375 355.4375 z "
       transform="matrix(0.26458333,0,0,0.26458333,-0.70551319,111.91817)"
       id="path9257" />
  </g>
</svg>
