<?xml version="1.0" encoding="UTF-8" standalone="no"?>
<!-- Created with Inkscape (http://www.inkscape.org/) -->

<svg
   xmlns:dc="http://purl.org/dc/elements/1.1/"
   xmlns:cc="http://creativecommons.org/ns#"
   xmlns:rdf="http://www.w3.org/1999/02/22-rdf-syntax-ns#"
   xmlns:svg="http://www.w3.org/2000/svg"
   xmlns="http://www.w3.org/2000/svg"
   xmlns:xlink="http://www.w3.org/1999/xlink"
   xmlns:sodipodi="http://sodipodi.sourceforge.net/DTD/sodipodi-0.dtd"
   xmlns:inkscape="http://www.inkscape.org/namespaces/inkscape"
   width="432.125"
   height="427.65625"
   viewBox="0 0 114.33307 113.15072"
   version="1.1"
   id="svg23489"
   inkscape:version="0.48.5 r10040"
   sodipodi:docname="moon.svg"
   tags="moon, moons, rocks, planet, asteroid,space, sky, night, night time, space rock, rock, commet"
   desctiption="full moon displaying optional craters and glow">
  <defs
     id="defs23483"
     tags="moon, moons, rocks, planet, asteroid,space, sky, night, night time, space rock, rock, commet">
    <linearGradient
       id="linearGradient8098">
      <stop
         style="stop-color:#ffd5ff;stop-opacity:1"
         offset="0"
         id="stop8100" />
      <stop
         id="stop8102"
         offset="0.60000002"
         style="stop-color:#ffd5ff;stop-opacity:1" />
      <stop
         style="stop-color:#ffd5ff;stop-opacity:0"
         offset="1"
         id="stop8104" />
    </linearGradient>
    <radialGradient
       inkscape:collect="always"
       xlink:href="#linearGradient8098"
       id="radialGradient7268"
       gradientUnits="userSpaceOnUse"
       gradientTransform="matrix(0,-1.0294579,0.99999997,2.4659198e-5,-35.135446,445.66818)"
       cx="241.65469"
       cy="234.39717"
       fx="241.65469"
       fy="234.39717"
       r="197.39375" />
  </defs>
  <sodipodi:namedview
     id="base"
     pagecolor="#7d848b"
     bordercolor="#666666"
     borderopacity="1.0"
     inkscape:pageopacity="0"
     inkscape:pageshadow="2"
     inkscape:zoom="0.85235729"
     inkscape:cx="136.47772"
     inkscape:cy="181.74675"
     inkscape:document-units="px"
     inkscape:current-layer="layer1"
     showgrid="false"
     inkscape:pagecheckerboard="false"
     showborder="true"
     units="px"
     inkscape:window-width="1920"
     inkscape:window-height="1017"
     inkscape:window-x="-8"
     inkscape:window-y="-8"
     inkscape:window-maximized="1"
     inkscape:showpageshadow="false"
     guidetolerance="28"
     fit-margin-top="0"
     fit-margin-left="0"
     fit-margin-right="0"
     fit-margin-bottom="0">
    <inkscape:grid
       type="xygrid"
       id="grid24034"
       spacingx="1px"
       spacingy="1px"
       empspacing="8"
       visible="true"
       enabled="true"
       snapvisiblegridlinesonly="true"
       originx="3.805597px"
       originy="-280.30671px" />
  </sodipodi:namedview>
  <metadata
     id="metadata23486">
    <rdf:RDF>
      <cc:Work
         rdf:about="">
        <dc:format>image/svg+xml</dc:format>
        <dc:type
           rdf:resource="http://purl.org/dc/dcmitype/StillImage" />
        <dc:title></dc:title>
        <cc:license
           rdf:resource="" />
        <dc:creator>
          <cc:Agent>
            <dc:title>Robert Brooks</dc:title>
          </cc:Agent>
        </dc:creator>
      </cc:Work>
    </rdf:RDF>
  </metadata>
  <g
     inkscape:label="Layer 1"
     inkscape:groupmode="layer"
     id="layer1"
     transform="translate(1.0068976,-109.68479)">
    <path
       style="color:#000000;fill:#ff6600;fill-opacity:1;fill-rule:nonzero;stroke:#382644;stroke-width:0;stroke-linejoin:round;stroke-miterlimit:4;stroke-opacity:1;stroke-dasharray:none;marker:none;visibility:visible;display:inline;overflow:visible;enable-background:accumulate"
       d="m 60.28125,119.34375 c -0.699323,-0.005 -0.294462,1.38511 -1.136809,1.20214 -0.92867,-0.10392 -1.88204,-0.0544 -2.800691,-0.17089 -1.186007,-1.03974 -3.101963,-1.19443 -4.661703,-0.79113 -0.81756,0.16096 -1.380698,0.83259 -2.062206,1.21211 -1.948785,0.28139 -3.894963,0.60363 -5.807341,1.07902 -0.256045,-0.30435 -0.290092,-0.91748 -0.780348,-1.09964 -0.498207,-0.53895 -1.367979,-0.42174 -2.036456,-0.12494 -1.773669,0.4772 -3.508573,1.12889 -5.120696,2.00583 -0.346124,0.35876 -0.38291,1.05713 -0.25,1.4375 0.388849,0.40831 -0.141844,0.75779 -0.53125,0.84375 -1.419414,0.60355 -2.711085,1.49841 -4.125,2.09375 -1.088881,-0.10466 -2.016206,0.71904 -2.820711,1.35196 -0.700059,0.69522 -1.175112,1.83778 -2.241789,1.96054 -1.055749,-0.26277 -2.479445,-0.4327 -3.250111,0.54893 -0.722813,0.74603 -1.679617,1.56222 -1.562389,2.70732 -0.184301,0.53054 0.283701,0.88441 0.125,1.3375 -1.129652,1.0118 -2.10433,2.27643 -2.984205,3.46492 -1.197175,1.5056 -2.176114,3.16333 -3.203295,4.78508 -0.565233,0.0438 -1.166327,0.28163 -1.607846,0.58913 -1.224105,2.40252 -2.459005,4.85778 -3.110904,7.47962 -0.109547,0.66561 0.440393,1.23042 0.473236,1.8401 -0.467683,1.49962 -0.711024,3.08043 -1.126986,4.5774 -1.3299988,1.72585 -1.4246643,4.17342 -0.6153639,6.14649 0.068825,1.66958 -0.042659,3.36024 0.1204429,5.03493 0.3455415,4.63749 1.360934,9.22855 3.086171,13.55108 -0.485825,0.51029 -0.889938,1.24387 -0.586025,1.96852 0.509816,1.699 1.485963,3.19222 2.336025,4.71898 0.47805,0.69447 0.93811,1.32126 1.65625,1.84375 0.428539,0.29675 1.061016,0.61561 1.612623,0.83937 0.531779,0.27928 0.682344,0.93483 0.293627,1.41063 -0.219731,0.5163 0.476105,1.04678 0.630545,1.41703 0.849788,0.97058 1.735538,1.79915 2.869455,2.33297 0.80604,-0.23074 1.228218,0.73864 1.78125,1.15625 1.308436,1.27211 2.686287,2.39839 4.106581,3.45135 1.361238,1.06738 2.901705,1.91921 4.268419,2.9549 0.172321,1.13437 1.099925,1.77538 2.095896,2.23814 1.629179,0.86689 3.352899,1.55993 5.122854,2.07436 0.620271,-0.11496 1.264276,-0.6632 1.876898,-0.25207 2.454449,0.77994 4.945069,1.47967 7.498102,1.84582 1.917863,1.32134 4.3429,1.55691 6.6125,1.6875 2.689119,0.0438 5.461712,-0.23238 7.8875,-1.46875 5.678871,-0.75998 11.256986,-2.49018 16.28125,-5.25 0.636986,0.14544 1.494998,0.41033 1.961543,-0.1751 1.538799,-0.86837 2.911323,-1.99393 4.350957,-3.0124 0.658748,-0.49449 1.52066,-1.2336 1.9375,-1.96875 0.235338,-1.04173 1.321146,-1.41408 1.955514,-2.20551 1.664401,-1.6279 3.310534,-3.35597 4.574877,-5.23255 0.781436,-0.93966 1.426158,-1.9793 2.094609,-2.99944 0.810171,0.14822 1.772005,-0.19146 2.375,-0.59375 2.041919,-1.87652 3.11841,-4.56605 3.625,-7.25 0.27404,-1.67892 0.13474,-3.42338 -0.40625,-5.03125 0.83035,-3.01793 1.1642,-6.13587 1.375,-9.25 0.35463,-0.17993 0.67092,-0.51885 0.5625,-0.98125 -0.006,-1.54822 0.0327,-3.09897 -0.0937,-4.64375 -0.58745,0.29022 -0.6842,-0.5453 -0.64021,-0.94259 -0.18722,-0.63042 0.0759,-1.23156 0.29002,-1.78712 0.0118,-1.50583 -0.48971,-2.9696 -0.77807,-4.4396 -0.44057,-1.8058 -0.94912,-3.80244 -2.09049,-5.20569 -0.515261,-0.78239 -0.696173,-1.82033 -1.170443,-2.66775 -0.40422,-0.96967 -0.970826,-1.88891 -1.329557,-2.8635 0.655106,-0.70425 -0.229403,-1.50269 -0.53125,-2.15625 -0.330863,-0.67082 -0.637246,-1.51648 -1.53125,-1.4375 -0.72075,-0.15145 -0.826654,-1.08191 -1.309661,-1.47086 -1.231452,-1.6086 -2.391045,-3.10998 -3.829348,-4.56729 C 88.459642,132.90381 86.69814,131.36213 85,130.09375 c -2.339479,-1.6424 -4.699769,-3.28748 -7.279783,-4.50563 -0.826638,-0.45697 -1.720381,-0.80734 -2.532717,-1.27562 -0.264028,-0.62321 -0.736976,-1.01618 -1.25,-1.46875 -0.341146,-0.15887 -0.847453,-0.43875 -0.953309,-0.93199 -0.215876,-0.60092 -0.664537,-1.08069 -1.340998,-1.10252 -1.601524,-0.39683 -3.221063,-0.78287 -4.861943,-0.93424 -0.50364,0.2119 -1.022164,0.63016 -1.571116,0.30453 -1.636933,-0.28895 -3.271025,-0.81168 -4.928884,-0.83578 z"
       id="path6861"
       inkscape:connector-curvature="0" />
    <path
       style="color:#000000;fill:#ffd5ff;fill-opacity:1;fill-rule:nonzero;stroke:none;stroke-width:12;marker:none;visibility:visible;display:inline;overflow:visible;enable-background:accumulate"
       d="m 60.314005,119.00878 c -0.61995,0.0775 -0.61392,0.30549 -0.92389,1.31291 0,0 0.389,1.38738 0.389,1.77485 0,0.34304 4.78217,0.85658 6.5159,0.97252 0.39326,0.97544 0.88591,2.01115 1.28859,2.21249 0.77494,0.38747 7.92605,0.15344 7.92605,-0.38901 0,-0.54245 -0.38606,-1.72019 -2.09092,-2.65012 -1.27865,-0.69745 -3.5849,-1.47051 -5.71356,-1.36153 -0.0487,0.002 -0.0972,0.0209 -0.14588,0.0243 -0.0829,-0.31395 -0.22046,-0.54065 -0.41332,-0.58351 -0.69746,-0.15499 -6.21201,-1.39042 -6.83197,-1.3129 z m -18.06459,1.06978 c -1.06235,0.0271 -5.96688,1.70936 -6.68608,2.47993 -0.18693,0.20031 -0.15788,0.50292 -0.26745,1.43447 0,0 0.83024,1.46458 2.30974,1.62897 1.47951,0.16438 6.49812,-3.82838 6.22414,-4.37635 -0.274,-0.54796 -1.41016,-1.14271 -1.41016,-1.14271 -0.0342,-0.0139 -0.0994,-0.0258 -0.17019,-0.0243 z m -17.8944,9.79815 c -0.32364,0.009 -0.59239,0.0243 -0.72939,0.0243 -0.547959,0 -1.859399,1.43373 -2.188169,1.8721 -0.32878,0.43837 -0.66879,0.54354 -0.5592,2.62581 0,0 2.634459,2.06882 4.716729,0.7537 2.08227,-1.31511 1.19134,-2.73282 1.19134,-4.15753 0,-1.06852 -1.46038,-1.14409 -2.43131,-1.1184 z m 68.75728,10.23579 c 0,0 0.0963,1.84522 0.75371,3.37952 0.65755,1.5343 1.33576,2.18854 2.21248,1.96935 0.87676,-0.21919 1.50741,-1.65255 1.50741,-2.09092 0,-0.43837 -0.86256,-1.61553 -1.19134,-2.38268 -0.32878,-0.76715 -0.76163,-0.76567 -3.28226,-0.87527 z m 6.44296,9.3119 c -0.37454,-0.0457 -0.70436,0.26469 -1.02115,0.31607 -0.50686,0.0822 -0.82664,0.43763 -0.82664,0.43763 3.397375,6.57559 2.734305,10.97716 3.282255,11.08675 0.54797,0.10968 1.64095,-1.45805 1.75054,-1.89642 0.10971,-0.43836 -1.03088,-7.14434 -2.45562,-9.33621 -0.26713,-0.41097 -0.504665,-0.58038 -0.729385,-0.60782 z m -85.484649,32.79829 c -1.35921,-0.006 -2.16386,0.17019 -2.16386,0.17019 -1.31512,1.09594 -0.0995,3.07137 1.21565,5.592 1.31511,2.52066 2.83044,3.51268 4.03596,3.84146 1.20553,0.32878 5.58114,-3.1813 4.81399,-5.37318 -0.76715,-2.19185 -1.84263,-3.39075 -4.91124,-3.93871 -1.15073,-0.20555 -2.17498,-0.28852 -2.9905,-0.29176 z m 71.626219,13.71255 c 0,0 -7.16508,5.10389 -7.87743,6.19983 -0.71235,1.09591 -1.16703,2.13955 -1.16703,2.13955 1.42471,1.20553 2.7648,1.46496 3.25795,1.41015 0.49319,-0.055 6.06444,-3.7779 7.05078,-5.4218 0.98634,-1.64391 -1.26427,-4.32773 -1.26427,-4.32773 z"
       id="path4263"
       gds_switchable="craters"
       inkscape:connector-curvature="0" />
    <g
       id="g4576"
       transform="matrix(2.9405377,0,0,2.9405377,146.31272,-133.8199)">
      <path
         inkscape:connector-curvature="0"
         style="color:#000000;fill:#ffd5ff;fill-opacity:1;fill-rule:nonzero;stroke:none;stroke-width:12;marker:none;visibility:visible;display:inline;overflow:visible;enable-background:accumulate"
         d="m -116.53125,256.8125 c -22.59741,0 -42.27065,11.53541 -52.59375,29.34375 -0.014,-0.0348 -0.0165,-0.0598 -0.0312,-0.0937 0,0 -1.03119,0.24443 -1.90625,0.71875 -1.66717,3.02351 -3.05376,6.21583 -4.15625,9.5625 -0.0582,1.53434 0.58013,2.34684 0.65625,2.4375 0.005,0.005 0.0312,0.0312 0.0312,0.0312 -0.005,0.0129 -0.0275,0.0184 -0.0312,0.0312 -1.47326,5.12206 -2.25,10.59132 -2.25,16.28125 0,13.14422 4.20832,25.0306 11.34375,34.625 -0.53721,0.67255 -0.56438,1.24623 -0.3125,1.75 0.3759,0.7518 2.279,2.81115 3.21875,3.375 0.93975,0.56385 1.1232,0.93795 1.875,0.75 0.0434,-0.0108 0.0782,-0.0664 0.125,-0.0937 3.61335,3.72102 7.73517,6.9754 12.25,9.65625 0.0745,0.85321 0.48235,1.29825 0.96875,1.90625 0.7518,0.93975 6.18301,3.18615 8.0625,3.75 0.5893,0.17679 1.31424,-0.0933 2,-0.5 0.008,-0.005 0.0234,0.005 0.0312,0 6.45542,2.24112 13.44559,3.46875 20.71875,3.46875 33.296624,0 60.28125,-25.39085 60.28125,-58.6875 0,-33.29663 -26.984626,-58.3125 -60.28125,-58.3125 z"
         transform="matrix(0.26458334,0,0,0.26458334,0.02643907,18.412334)"
         id="path4265" />
      <path
         inkscape:connector-curvature="0"
         style="opacity:0.21681417;color:#000000;fill:#d1afe3;fill-opacity:1;fill-rule:nonzero;stroke:none;stroke-width:12;marker:none;visibility:visible;display:inline;overflow:visible;enable-background:accumulate"
         d="m -135.28125,259.59375 c -13.92742,4.27214 -25.63883,13.23501 -33.03125,25.1875 2.05503,1.01585 6.06399,1.43154 5.875,2.1875 -0.28173,1.12689 3.375,6.4375 3.375,6.4375 0,0 7.30871,-7.00189 9.5625,-5.875 2.25379,1.1269 6.5,0 6.5,0 0,0 2.52794,-5.96354 4.5,-9.0625 1.97207,-3.09896 0.84612,-4.46828 -0.5625,-4.75 -1.40861,-0.28173 -2,-5.375 -2,-5.375 0,0 3.96828,-4.21639 4.25,-5.625 0.13134,-0.65675 0.98657,-1.87986 1.53125,-3.125 z m 70.34375,24.84375 c -4.214967,1.36443 -8.365344,6.62073 -9.34375,7.84375 -1.126904,1.40861 -3.09375,10.43181 -3.09375,13.8125 0,3.38069 -5.34375,5.625 -5.34375,5.625 0,0 -7.057763,-3.625 -9.875,-3.625 -2.81723,0 -10.125,5.875 -10.125,5.875 l 0.25,8.1875 -6.4375,4.5 c 0,0 -2.84328,8.1856 -3.125,9.3125 -0.28173,1.1269 7.62311,0.27836 8.75,1.96875 1.12689,1.69036 3.0625,6.75 3.0625,6.75 0,0 10.997163,6.21542 12.6875,8.1875 1.690348,1.97204 5.340429,-15.50143 7.3125,-14.65625 1.972059,0.84518 12.6875,-2.53125 12.6875,-2.53125 0,0 -1.940341,-12.12591 -0.25,-11.5625 1.690337,0.56345 6.746679,-0.56532 8.71875,1.125 0.455728,0.39061 1.077982,0.65678 1.78125,0.84375 0.663999,-3.54739 1.03125,-7.19262 1.03125,-10.96875 0,-11.42891 -3.164862,-21.88934 -8.6875,-30.6875 z m -108.34375,50.875 c 1.91062,5.21909 4.53742,10.07234 7.78125,14.4375 -0.52499,0.66613 -0.5312,1.25008 -0.28125,1.75 0.3759,0.7518 2.279,2.81115 3.21875,3.375 0.93975,0.56385 1.1232,0.93795 1.875,0.75 0.0434,-0.0108 0.0782,-0.0664 0.125,-0.0937 3.61615,3.72601 7.73452,6.9727 12.25,9.65625 0.0745,0.85321 0.48235,1.29825 0.96875,1.90625 0.7518,0.93975 6.18301,3.18615 8.0625,3.75 0.59608,0.17882 1.33838,-0.085 2.03125,-0.5 6.46048,2.24623 13.43784,3.46875 20.71875,3.46875 2.73295,0 5.39478,-0.19861 8.03125,-0.53125 -1.24188,-1.84199 -3.53125,-0.96875 -3.53125,-0.96875 0,0 -2.81156,-3.68464 -3.375,-5.375 -0.56345,-1.69036 -6.1856,-2.49619 -7.3125,-4.75 -1.12689,-2.25377 -0.875,-5.09046 -0.875,-7.0625 0,-1.97208 -8.15483,-7.3106 -9,-8.4375 -0.84517,-1.12687 -4.49668,-4.80917 -6.46875,-6.78125 -1.97207,-1.97204 -14.96354,4.50048 -18.0625,4.21875 -2.94876,-0.26797 -9.46332,-5.62277 -16.15625,-8.8125 z"
         transform="matrix(0.26458334,0,0,0.26458334,0.02643907,18.412334)"
         id="path4267" />
    </g>
    <g
       id="g6243"
       transform="translate(1.0238995e-6,7.7988517e-8)"
       gds_switchable="craters">
      <path
         id="path4269"
         d="m 17.1279,169.9091 c -0.15751,-0.007 -0.292083,0.0205 -0.437635,0.0729 -1.164396,0.42002 -1.423561,2.65538 -0.583513,4.98418 0.840049,2.32879 2.458247,3.87247 3.622643,3.45245 1.164396,-0.42002 1.423562,-2.65538 0.583513,-4.98418 -0.735039,-2.03769 -2.082449,-3.47875 -3.185008,-3.52539 z m 51.470706,1.77485 c -0.266642,-0.002 -0.554135,0.0208 -0.826643,0.0729 -2.179997,0.41673 -3.610771,2.45027 -3.209321,4.54654 0.401503,2.09628 2.488091,3.45587 4.668103,3.03913 2.180044,-0.41673 3.635086,-2.45026 3.233635,-4.54654 -0.351315,-1.83423 -1.999252,-3.10197 -3.865774,-3.11207 z m -6.88059,18.62379 c -0.717628,0.0263 -1.532842,0.19763 -2.358365,0.51058 -2.201384,0.83451 -3.650885,2.40038 -3.233634,3.50107 0.41725,1.1007 2.539658,1.32077 4.741042,0.48627 2.201385,-0.83451 3.650885,-2.40039 3.233635,-3.50108 -0.260784,-0.68793 -1.186632,-1.04062 -2.382678,-0.99684 z m -35.205283,3.64696 c -0.52965,0.059 -0.954199,0.23821 -1.239965,0.51057 -1.143063,1.08944 0.422884,3.53941 3.501078,5.47044 3.078195,1.93103 6.491232,2.59684 7.634295,1.50741 1.143063,-1.08944 -0.422884,-3.53941 -3.501078,-5.47044 -2.308642,-1.44828 -4.805369,-2.19518 -6.39433,-2.01798 z"
         style="opacity:0.37168142;color:#000000;fill:#643d9f;fill-opacity:1;fill-rule:nonzero;stroke:none;stroke-width:12;marker:none;visibility:visible;display:inline;overflow:visible;enable-background:accumulate"
         inkscape:connector-curvature="0" />
      <path
         id="path4273"
         d="m 50.339513,129.64671 c -1.188795,0.11377 -2.021958,0.95071 -1.847791,1.8721 0.174237,0.92139 1.291143,1.57258 2.47993,1.45878 1.18881,-0.11377 1.997707,-0.95071 1.823478,-1.8721 -0.174221,-0.92139 -1.266814,-1.57258 -2.455617,-1.45878 z m -28.981144,10.04128 c -0.490454,0.10826 -1.210937,0.84316 -1.847791,1.92073 -0.849284,1.4367 -1.222047,2.96277 -0.826643,3.40383 0.395365,0.44106 1.411969,-0.38671 2.261112,-1.82348 0.849284,-1.43669 1.197735,-2.93845 0.802331,-3.37951 -0.09884,-0.11027 -0.225524,-0.15765 -0.389009,-0.12157 z m 57.014079,7.14804 c -0.09567,-0.007 -0.193253,0.0127 -0.291756,0.0243 -0.787964,0.0928 -1.331274,0.78022 -1.215652,1.53172 0.02335,0.15196 0.07672,0.28254 0.145878,0.41332 -0.693766,-0.62817 -1.664135,-0.96992 -2.674434,-0.85095 -1.767725,0.20817 -2.982063,1.74226 -2.723061,3.42814 0.259091,1.68587 1.903545,2.88259 3.671269,2.67443 0.22097,-0.0261 0.430025,-0.0807 0.632139,-0.14588 0.0026,0.0245 -0.0038,0.0483 0,0.0729 0.141184,0.91866 1.054706,1.5722 2.017983,1.45879 0.963276,-0.11344 1.62427,-0.95345 1.483095,-1.87211 -0.120842,-0.78647 -0.808908,-1.35166 -1.60466,-1.43447 0.184254,-0.46531 0.276291,-0.97504 0.194504,-1.50741 -0.07488,-0.48721 -0.283538,-0.92935 -0.5592,-1.3129 0.292072,0.20341 0.663054,0.31247 1.045461,0.26744 0.787993,-0.0928 1.33098,-0.78022 1.215652,-1.53172 -0.101066,-0.65756 -0.667541,-1.16532 -1.337218,-1.21565 z m 19.766502,4.25478 c -0.04179,0.002 -0.08549,0.0222 -0.121565,0.0486 -0.288643,0.21112 -0.273548,1.1606 0.04863,2.11524 0.322078,0.95467 0.829786,1.54835 1.1184,1.33722 0.288643,-0.21112 0.249235,-1.1606 -0.07294,-2.11524 -0.281817,-0.83532 -0.679966,-1.39886 -0.972522,-1.38584 z m -58.205418,4.20615 c -0.226816,-0.017 -0.447236,-0.003 -0.680765,0.0243 -1.868238,0.22001 -3.167052,1.84092 -2.893252,3.62264 0.2738,1.78172 2.021849,3.04032 3.890086,2.82031 1.868238,-0.22 3.167052,-1.84092 2.893252,-3.62264 -0.239575,-1.55901 -1.621637,-2.72533 -3.209321,-2.84462 z m -9.725216,10.77068 c -1.319549,0.15541 -2.235695,1.31875 -2.042296,2.57718 0.193408,1.25844 1.427825,2.14893 2.747374,1.99367 1.319548,-0.15541 2.235695,-1.29443 2.042295,-2.55287 -0.19336,-1.25843 -1.427825,-2.17324 -2.747373,-2.01798 z m 50.352306,8.21781 c -1.055185,0.12426 -1.783558,1.03595 -1.628974,2.04229 0.154649,1.00635 1.132989,1.72905 2.188174,1.60467 1.055218,-0.12425 1.783558,-1.03596 1.628974,-2.0423 -0.154652,-1.00634 -1.132956,-1.72904 -2.188174,-1.60466 z"
         style="color:#000000;fill:#f5cdf9;fill-opacity:1;fill-rule:nonzero;stroke:none;stroke-width:12;marker:none;visibility:visible;display:inline;overflow:visible;enable-background:accumulate"
         inkscape:connector-curvature="0" />
      <path
         id="path4275"
         d="m 62.687514,133.42971 c -0.689133,1.37206 0.172992,3.11064 1.927364,3.88292 1.753604,0.77244 3.734077,0.28638 4.423268,-1.08564 0.689133,-1.37206 -0.172668,-3.11063 -1.927328,-3.88291 -1.75364,-0.77245 -3.734077,-0.28638 -4.423304,1.08562 z"
         style="color:#000000;fill:#d1afe3;fill-opacity:1;fill-rule:nonzero;stroke:none;stroke-width:12;marker:none;visibility:visible;display:inline;overflow:visible;enable-background:accumulate"
         inkscape:connector-curvature="0" />
      <g
         id="g4281"
         transform="matrix(3.0890854,0.41390626,-0.41390626,3.0890854,-222.92354,-165.48012)">
        <path
           inkscape:connector-curvature="0"
           style="color:#000000;fill:#ffefff;fill-opacity:1;fill-rule:nonzero;stroke:none;stroke-width:12;marker:none;visibility:visible;display:inline;overflow:visible;enable-background:accumulate"
           d="m 107.42464,80.309819 c -0.27877,0.356363 -0.01,0.924273 0.60106,1.26851 0.61074,0.344226 1.33189,0.334406 1.61069,-0.02195 0.27877,-0.356363 0.01,-0.924275 -0.60105,-1.268505 -0.61075,-0.344231 -1.3319,-0.334411 -1.6107,0.02194 z"
           id="path4283"
           sodipodi:nodetypes="cccccc" />
        <path
           id="path4285"
           d="m 107.42464,80.116421 c -0.27877,0.356363 -0.01,0.924273 0.60106,1.26851 0.61074,0.344226 1.33189,0.334406 1.61069,-0.02195 0.27877,-0.356363 0.01,-0.924275 -0.60105,-1.268505 -0.61075,-0.344231 -1.3319,-0.334411 -1.6107,0.02194 z"
           style="color:#000000;fill:#c59cdb;fill-opacity:1;fill-rule:nonzero;stroke:none;stroke-width:12;marker:none;visibility:visible;display:inline;overflow:visible;enable-background:accumulate"
           inkscape:connector-curvature="0" />
        <path
           style="opacity:0.17699112;color:#000000;fill:#372258;fill-opacity:1;fill-rule:nonzero;stroke:none;stroke-width:12;marker:none;visibility:visible;display:inline;overflow:visible;enable-background:accumulate"
           d="m 108.10709,79.846609 c -0.29148,0.004 -0.54686,0.09468 -0.68626,0.272852 -0.0888,0.113569 -0.11495,0.246155 -0.0992,0.388606 0.0177,-0.0441 0.0352,-0.08453 0.0661,-0.124023 0.2788,-0.356351 1.00155,-0.369036 1.6123,-0.02479 0.42388,0.238789 0.67685,0.584189 0.7028,0.892968 0.15795,-0.355187 -0.11773,-0.846592 -0.66973,-1.157552 -0.30537,-0.172117 -0.63456,-0.252015 -0.92604,-0.248047 z"
           id="path4287"
           inkscape:connector-curvature="0" />
      </g>
      <g
         id="g4289"
         transform="matrix(3.7909153,-0.08688313,0.10203807,3.2278794,-335.02398,-124.15052)">
        <path
           id="path4291"
           d="m 101.30432,78.7962 c 0.072,0.309957 -0.37995,0.592252 -0.87155,0.630527 -0.491597,0.03828 -1.128789,-0.1944 -1.182178,-0.628678 -0.01945,-0.232871 0.05266,-0.231269 0.105364,-0.321218 0.142512,-0.243206 0.45704,-0.281368 0.815904,-0.309308 0.44792,-0.03487 0.62135,0.0096 1.01332,0.298609 0.1357,0.10006 0.10712,0.278372 0.11914,0.330068 z"
           style="opacity:0.94690265;color:#000000;fill:#ffc6ff;fill-opacity:1;fill-rule:nonzero;stroke:none;stroke-width:12;marker:none;visibility:visible;display:inline;overflow:visible;enable-background:accumulate"
           inkscape:connector-curvature="0"
           sodipodi:nodetypes="cscsssc" />
        <path
           id="path4293"
           d="m 101.23309,78.573265 c 0.0754,0.324113 -0.28031,0.619302 -0.79437,0.659324 -0.514043,0.04003 -0.991839,-0.190278 -1.067166,-0.514392 -0.07532,-0.324113 0.280304,-0.619303 0.794356,-0.659325 0.51405,-0.04002 0.99185,0.190279 1.06718,0.514393 z"
           style="color:#000000;fill:#ffefff;fill-opacity:1;fill-rule:nonzero;stroke:none;stroke-width:12;marker:none;visibility:visible;display:inline;overflow:visible;enable-background:accumulate"
           inkscape:connector-curvature="0" />
        <path
           inkscape:connector-curvature="0"
           style="color:#000000;fill:#c59cdb;fill-opacity:1;fill-rule:nonzero;stroke:none;stroke-width:12;marker:none;visibility:visible;display:inline;overflow:visible;enable-background:accumulate"
           d="m 101.08089,78.54116 c 0.063,0.271116 -0.23447,0.518037 -0.66447,0.551516 -0.429992,0.03348 -0.829662,-0.159166 -0.892672,-0.430282 -0.063,-0.271116 0.23447,-0.518038 0.664462,-0.551516 0.43,-0.03348 0.82967,0.159166 0.89268,0.430282 z"
           id="path4295" />
        <path
           style="color:#000000;fill:#ac86c4;fill-opacity:1;fill-rule:nonzero;stroke:none;stroke-width:12;marker:none;visibility:visible;display:inline;overflow:visible;enable-background:accumulate"
           d="m 100.18613,78.110281 c -0.429994,0.03348 -0.724459,0.282855 -0.661459,0.553971 0.04704,-0.211386 0.307348,-0.385842 0.661459,-0.413411 0.43,-0.03348 0.82996,0.158832 0.89297,0.429948 0.0101,-0.0453 0.0111,-0.09272 0,-0.14056 -0.063,-0.271116 -0.46297,-0.463428 -0.89297,-0.429948 z"
           id="path4297"
           inkscape:connector-curvature="0" />
      </g>
      <g
         transform="matrix(5.0770939,-3.1306799,3.0241172,5.6549019,-707.1235,4.570474)"
         id="g4299">
        <path
           sodipodi:nodetypes="cscsssc"
           inkscape:connector-curvature="0"
           style="opacity:0.94690265;color:#000000;fill:#ffc6ff;fill-opacity:1;fill-rule:nonzero;stroke:none;stroke-width:12;marker:none;visibility:visible;display:inline;overflow:visible;enable-background:accumulate"
           d="m 101.30432,78.7962 c 0.072,0.309957 -0.37995,0.592252 -0.87155,0.630527 -0.491597,0.03828 -1.128789,-0.1944 -1.182178,-0.628678 -0.01945,-0.232871 0.05266,-0.231269 0.105364,-0.321218 0.142512,-0.243206 0.45704,-0.281368 0.815904,-0.309308 0.44792,-0.03487 0.62135,0.0096 1.01332,0.298609 0.1357,0.10006 0.10712,0.278372 0.11914,0.330068 z"
           id="path4301" />
        <path
           inkscape:connector-curvature="0"
           style="color:#000000;fill:#ffefff;fill-opacity:1;fill-rule:nonzero;stroke:none;stroke-width:12;marker:none;visibility:visible;display:inline;overflow:visible;enable-background:accumulate"
           d="m 101.23309,78.573265 c 0.0754,0.324113 -0.28031,0.619302 -0.79437,0.659324 -0.514043,0.04003 -0.991839,-0.190278 -1.067166,-0.514392 -0.07532,-0.324113 0.280304,-0.619303 0.794356,-0.659325 0.51405,-0.04002 0.99185,0.190279 1.06718,0.514393 z"
           id="path4303" />
        <path
           id="path4305"
           d="m 101.08089,78.54116 c 0.063,0.271116 -0.23447,0.518037 -0.66447,0.551516 -0.429992,0.03348 -0.829662,-0.159166 -0.892672,-0.430282 -0.063,-0.271116 0.23447,-0.518038 0.664462,-0.551516 0.43,-0.03348 0.82967,0.159166 0.89268,0.430282 z"
           style="color:#000000;fill:#c59cdb;fill-opacity:1;fill-rule:nonzero;stroke:none;stroke-width:12;marker:none;visibility:visible;display:inline;overflow:visible;enable-background:accumulate"
           inkscape:connector-curvature="0" />
        <path
           inkscape:connector-curvature="0"
           id="path4307"
           d="m 100.18613,78.110281 c -0.429994,0.03348 -0.724459,0.282855 -0.661459,0.553971 0.04704,-0.211386 0.307348,-0.385842 0.661459,-0.413411 0.43,-0.03348 0.82996,0.158832 0.89297,0.429948 0.0101,-0.0453 0.0111,-0.09272 0,-0.14056 -0.063,-0.271116 -0.46297,-0.463428 -0.89297,-0.429948 z"
           style="color:#000000;fill:#ac86c4;fill-opacity:1;fill-rule:nonzero;stroke:none;stroke-width:12;marker:none;visibility:visible;display:inline;overflow:visible;enable-background:accumulate" />
      </g>
      <path
         inkscape:connector-curvature="0"
         style="color:#000000;fill:#f5cdf9;fill-opacity:1;fill-rule:nonzero;stroke:none;stroke-width:12;marker:none;visibility:visible;display:inline;overflow:visible;enable-background:accumulate"
         d="m 82.145096,132.25181 c -0.709854,0.0593 1.930116,2.5637 3.015033,5.4116 0.254974,0.66929 0.472421,1.38882 0.695779,2.1131 -5.026361,-4.65892 -11.60308,-6.50655 -9.68934,-5.66929 2.479803,1.08491 8.379548,4.79313 6.519687,4.79313 -1.291114,0 -6.032328,0.8704 -8.323554,1.21117 2.955223,0.38509 9.560491,3.11811 9.560491,3.11811 1.084917,1.39488 -1.704868,13.50317 0,13.50323 0.154996,0 2.162786,-10.2294 2.937727,-10.69435 0.77494,-0.46497 5.747345,10.05308 5.437369,8.81317 -0.273588,-1.09435 1.123526,-1.82308 -1.417325,-7.62777 3.450604,1.90785 4.459555,2.95727 3.736583,1.75232 -0.929922,-1.54988 -4.664284,-3.86543 -4.664284,-3.86543 0,0 2.498901,-3.88897 2.808878,-4.8189 0.239389,-0.71817 -2.1962,0.30275 -2.963495,0.67001 0.620366,-0.78497 0.445215,-5.02723 0.154614,-5.46314 -0.309977,-0.46496 -1.853551,2.31889 -2.628491,2.47388 -0.77494,0.15499 -2.623668,-4.81706 -4.638516,-5.59199 -0.251857,-0.0969 -0.439754,-0.13732 -0.541159,-0.12885 z m -7.782395,7.85971 c -0.488285,-0.0637 -0.892112,-0.0621 -1.133859,0.0259 -0.521346,0.18958 0.124561,0.12433 1.133859,-0.0259 z"
         id="path4309" />
      <g
         id="g4311"
         transform="matrix(3.2604985,4.9947159,-5.5750786,3.168864,199.07847,-608.69216)">
        <path
           id="path4313"
           d="m 101.30432,78.7962 c 0.072,0.309957 -0.37995,0.592252 -0.87155,0.630527 -0.491597,0.03828 -1.128789,-0.1944 -1.182178,-0.628678 -0.01945,-0.232871 0.05266,-0.231269 0.105364,-0.321218 0.142512,-0.243206 0.45704,-0.281368 0.815904,-0.309308 0.44792,-0.03487 0.62135,0.0096 1.01332,0.298609 0.1357,0.10006 0.10712,0.278372 0.11914,0.330068 z"
           style="opacity:0.94690265;color:#000000;fill:#ffc6ff;fill-opacity:1;fill-rule:nonzero;stroke:none;stroke-width:12;marker:none;visibility:visible;display:inline;overflow:visible;enable-background:accumulate"
           inkscape:connector-curvature="0"
           sodipodi:nodetypes="cscsssc" />
        <path
           id="path4315"
           d="m 101.23309,78.573265 c 0.0754,0.324113 -0.28031,0.619302 -0.79437,0.659324 -0.514043,0.04003 -0.991839,-0.190278 -1.067166,-0.514392 -0.07532,-0.324113 0.280304,-0.619303 0.794356,-0.659325 0.51405,-0.04002 0.99185,0.190279 1.06718,0.514393 z"
           style="color:#000000;fill:#ffefff;fill-opacity:1;fill-rule:nonzero;stroke:none;stroke-width:12;marker:none;visibility:visible;display:inline;overflow:visible;enable-background:accumulate"
           inkscape:connector-curvature="0" />
        <path
           inkscape:connector-curvature="0"
           style="color:#000000;fill:#c59cdb;fill-opacity:1;fill-rule:nonzero;stroke:none;stroke-width:12;marker:none;visibility:visible;display:inline;overflow:visible;enable-background:accumulate"
           d="m 101.08089,78.54116 c 0.063,0.271116 -0.23447,0.518037 -0.66447,0.551516 -0.429992,0.03348 -0.829662,-0.159166 -0.892672,-0.430282 -0.063,-0.271116 0.23447,-0.518038 0.664462,-0.551516 0.43,-0.03348 0.82967,0.159166 0.89268,0.430282 z"
           id="path4317" />
        <path
           style="color:#000000;fill:#ac86c4;fill-opacity:1;fill-rule:nonzero;stroke:none;stroke-width:12;marker:none;visibility:visible;display:inline;overflow:visible;enable-background:accumulate"
           d="m 100.18613,78.110281 c -0.429994,0.03348 -0.724459,0.282855 -0.661459,0.553971 0.04704,-0.211386 0.307348,-0.385842 0.661459,-0.413411 0.43,-0.03348 0.82996,0.158832 0.89297,0.429948 0.0101,-0.0453 0.0111,-0.09272 0,-0.14056 -0.063,-0.271116 -0.46297,-0.463428 -0.89297,-0.429948 z"
           id="path4319"
           inkscape:connector-curvature="0" />
      </g>
      <path
         style="color:#000000;fill:#ffd5ff;fill-opacity:1;fill-rule:nonzero;stroke:none;stroke-width:12;marker:none;visibility:visible;display:inline;overflow:visible;enable-background:accumulate"
         d="m 65.243818,120.68796 c 0.542455,-0.69745 0.852432,-1.00742 1.549875,-1.08492 0.697451,-0.0775 5.037111,0.85243 5.657065,1.16241 0.619945,0.30997 1.162409,2.32482 1.162409,2.32482 0,0 -6.974461,-1.00743 -7.129451,-1.31739 -0.154966,-0.30998 -1.239898,-1.08492 -1.239898,-1.08492 z"
         id="path4321"
         inkscape:connector-curvature="0" />
      <g
         transform="matrix(-2.6816706,6.4187965,-3.8036552,-3.1857727,666.45803,-209.77704)"
         id="g4323">
        <path
           sodipodi:nodetypes="cscsssc"
           inkscape:connector-curvature="0"
           style="opacity:0.94690265;color:#000000;fill:#ffc6ff;fill-opacity:1;fill-rule:nonzero;stroke:none;stroke-width:12;marker:none;visibility:visible;display:inline;overflow:visible;enable-background:accumulate"
           d="m 101.30432,78.7962 c 0.072,0.309957 -0.37995,0.592252 -0.87155,0.630527 -0.491597,0.03828 -1.128789,-0.1944 -1.182178,-0.628678 -0.01945,-0.232871 0.05266,-0.231269 0.105364,-0.321218 0.142512,-0.243206 0.45704,-0.281368 0.815904,-0.309308 0.44792,-0.03487 0.62135,0.0096 1.01332,0.298609 0.1357,0.10006 0.10712,0.278372 0.11914,0.330068 z"
           id="path4325" />
        <path
           inkscape:connector-curvature="0"
           style="color:#000000;fill:#ffefff;fill-opacity:1;fill-rule:nonzero;stroke:none;stroke-width:12;marker:none;visibility:visible;display:inline;overflow:visible;enable-background:accumulate"
           d="m 101.23309,78.573265 c 0.0754,0.324113 -0.28031,0.619302 -0.79437,0.659324 -0.514043,0.04003 -0.991839,-0.190278 -1.067166,-0.514392 -0.07532,-0.324113 0.280304,-0.619303 0.794356,-0.659325 0.51405,-0.04002 0.99185,0.190279 1.06718,0.514393 z"
           id="path4327" />
        <path
           id="path4329"
           d="m 101.08089,78.54116 c 0.063,0.271116 -0.23447,0.518037 -0.66447,0.551516 -0.429992,0.03348 -0.829662,-0.159166 -0.892672,-0.430282 -0.063,-0.271116 0.23447,-0.518038 0.664462,-0.551516 0.43,-0.03348 0.82967,0.159166 0.89268,0.430282 z"
           style="color:#000000;fill:#c59cdb;fill-opacity:1;fill-rule:nonzero;stroke:none;stroke-width:12;marker:none;visibility:visible;display:inline;overflow:visible;enable-background:accumulate"
           inkscape:connector-curvature="0" />
        <path
           inkscape:connector-curvature="0"
           id="path4331"
           d="m 100.18613,78.110281 c -0.429994,0.03348 -0.724459,0.282855 -0.661459,0.553971 0.04704,-0.211386 0.307348,-0.385842 0.661459,-0.413411 0.43,-0.03348 0.82996,0.158832 0.89297,0.429948 0.0101,-0.0453 0.0111,-0.09272 0,-0.14056 -0.063,-0.271116 -0.46297,-0.463428 -0.89297,-0.429948 z"
           style="color:#000000;fill:#ac86c4;fill-opacity:1;fill-rule:nonzero;stroke:none;stroke-width:12;marker:none;visibility:visible;display:inline;overflow:visible;enable-background:accumulate" />
      </g>
      <g
         id="g4333"
         transform="matrix(-1.125491,4.6645526,-3.6688371,-1.3782912,496.90474,-190.79396)">
        <path
           id="path4335"
           d="m 101.30432,78.7962 c 0.072,0.309957 -0.37995,0.592252 -0.87155,0.630527 -0.491597,0.03828 -1.128789,-0.1944 -1.182178,-0.628678 -0.01945,-0.232871 0.05266,-0.231269 0.105364,-0.321218 0.142512,-0.243206 0.45704,-0.281368 0.815904,-0.309308 0.44792,-0.03487 0.62135,0.0096 1.01332,0.298609 0.1357,0.10006 0.10712,0.278372 0.11914,0.330068 z"
           style="opacity:0.94690265;color:#000000;fill:#ffc6ff;fill-opacity:1;fill-rule:nonzero;stroke:none;stroke-width:12;marker:none;visibility:visible;display:inline;overflow:visible;enable-background:accumulate"
           inkscape:connector-curvature="0"
           sodipodi:nodetypes="cscsssc" />
        <path
           id="path4337"
           d="m 101.23309,78.573265 c 0.0754,0.324113 -0.28031,0.619302 -0.79437,0.659324 -0.514043,0.04003 -0.991839,-0.190278 -1.067166,-0.514392 -0.07532,-0.324113 0.280304,-0.619303 0.794356,-0.659325 0.51405,-0.04002 0.99185,0.190279 1.06718,0.514393 z"
           style="color:#000000;fill:#ffefff;fill-opacity:1;fill-rule:nonzero;stroke:none;stroke-width:12;marker:none;visibility:visible;display:inline;overflow:visible;enable-background:accumulate"
           inkscape:connector-curvature="0" />
        <path
           inkscape:connector-curvature="0"
           style="color:#000000;fill:#c59cdb;fill-opacity:1;fill-rule:nonzero;stroke:none;stroke-width:12;marker:none;visibility:visible;display:inline;overflow:visible;enable-background:accumulate"
           d="m 101.08089,78.54116 c 0.063,0.271116 -0.23447,0.518037 -0.66447,0.551516 -0.429992,0.03348 -0.829662,-0.159166 -0.892672,-0.430282 -0.063,-0.271116 0.23447,-0.518038 0.664462,-0.551516 0.43,-0.03348 0.82967,0.159166 0.89268,0.430282 z"
           id="path4339" />
        <path
           style="color:#000000;fill:#ac86c4;fill-opacity:1;fill-rule:nonzero;stroke:none;stroke-width:12;marker:none;visibility:visible;display:inline;overflow:visible;enable-background:accumulate"
           d="m 100.18613,78.110281 c -0.429994,0.03348 -0.724459,0.282855 -0.661459,0.553971 0.04704,-0.211386 0.307348,-0.385842 0.661459,-0.413411 0.43,-0.03348 0.82996,0.158832 0.89297,0.429948 0.0101,-0.0453 0.0111,-0.09272 0,-0.14056 -0.063,-0.271116 -0.46297,-0.463428 -0.89297,-0.429948 z"
           id="path4341"
           inkscape:connector-curvature="0" />
      </g>
      <g
         transform="matrix(-0.31138724,2.2126466,-2.2126466,-0.31138724,301.45521,-21.29983)"
         id="g4343">
        <path
           sodipodi:nodetypes="cccccc"
           id="path4345"
           d="m 107.42464,80.309819 c -0.27877,0.356363 -0.01,0.924273 0.60106,1.26851 0.61074,0.344226 1.33189,0.334406 1.61069,-0.02195 0.27877,-0.356363 0.01,-0.924275 -0.60105,-1.268505 -0.61075,-0.344231 -1.3319,-0.334411 -1.6107,0.02194 z"
           style="color:#000000;fill:#ffefff;fill-opacity:1;fill-rule:nonzero;stroke:none;stroke-width:12;marker:none;visibility:visible;display:inline;overflow:visible;enable-background:accumulate"
           inkscape:connector-curvature="0" />
        <path
           inkscape:connector-curvature="0"
           style="color:#000000;fill:#c59cdb;fill-opacity:1;fill-rule:nonzero;stroke:none;stroke-width:12;marker:none;visibility:visible;display:inline;overflow:visible;enable-background:accumulate"
           d="m 107.42464,80.116421 c -0.27877,0.356363 -0.01,0.924273 0.60106,1.26851 0.61074,0.344226 1.33189,0.334406 1.61069,-0.02195 0.27877,-0.356363 0.01,-0.924275 -0.60105,-1.268505 -0.61075,-0.344231 -1.3319,-0.334411 -1.6107,0.02194 z"
           id="path4347" />
        <path
           inkscape:connector-curvature="0"
           id="path4349"
           d="m 108.10709,79.846609 c -0.29148,0.004 -0.54686,0.09468 -0.68626,0.272852 -0.0888,0.113569 -0.11495,0.246155 -0.0992,0.388606 0.0177,-0.0441 0.0352,-0.08453 0.0661,-0.124023 0.2788,-0.356351 1.00155,-0.369036 1.6123,-0.02479 0.42388,0.238789 0.67685,0.584189 0.7028,0.892968 0.15795,-0.355187 -0.11773,-0.846592 -0.66973,-1.157552 -0.30537,-0.172117 -0.63456,-0.252015 -0.92604,-0.248047 z"
           style="opacity:0.17699112;color:#000000;fill:#372258;fill-opacity:1;fill-rule:nonzero;stroke:none;stroke-width:12;marker:none;visibility:visible;display:inline;overflow:visible;enable-background:accumulate" />
      </g>
      <g
         id="g4351"
         transform="matrix(0.64144778,2.0643615,-1.548586,0.85508978,158.34969,-128.55481)">
        <path
           style="color:#000000;fill:#ffefff;fill-opacity:1;fill-rule:nonzero;stroke:none;stroke-width:12;marker:none;visibility:visible;display:inline;overflow:visible;enable-background:accumulate"
           d="m 438.78125,275 c -1.0132,0.0473 -1.92539,1.22416 -2.125,2.875 -0.22843,1.88587 0.53755,3.67157 1.71875,4 0.40705,0.11315 0.8254,0.0375 1.1875,-0.1875 0.0451,-0.92616 0.0625,-1.87255 0.0625,-2.8125 0,-1.24856 -0.0458,-2.46467 -0.125,-3.6875 -0.0951,-0.0491 -0.1797,-0.0968 -0.28125,-0.125 -0.14765,-0.041 -0.29276,-0.0693 -0.4375,-0.0625 z"
           transform="matrix(0.14122994,-0.34095794,0.34095794,0.14122994,-48.387104,191.21584)"
           id="path4353"
           inkscape:connector-curvature="0" />
        <path
           style="color:#000000;fill:#c59cdb;fill-opacity:1;fill-rule:nonzero;stroke:none;stroke-width:12;marker:none;visibility:visible;display:inline;overflow:visible;enable-background:accumulate"
           d="m 439.25,274.8125 c -1.0132,0.0473 -1.89414,1.22416 -2.09375,2.875 -0.22843,1.88587 0.53755,3.67157 1.71875,4 0.23889,0.0664 0.45898,0.0557 0.6875,0 0.0451,-0.92616 0.0625,-1.87255 0.0625,-2.8125 0,-1.36607 -0.0616,-2.69609 -0.15625,-4.03125 -0.0737,-0.008 -0.14601,-0.0346 -0.21875,-0.0312 z"
           transform="matrix(0.14122994,-0.34095794,0.34095794,0.14122994,-48.387104,191.21584)"
           id="path4355"
           inkscape:connector-curvature="0" />
        <path
           style="opacity:0.17699112;color:#000000;fill:#372258;fill-opacity:1;fill-rule:nonzero;stroke:none;stroke-width:12;marker:none;visibility:visible;display:inline;overflow:visible;enable-background:accumulate"
           d="m 439.46875,275.5 c -0.0124,-0.20827 -0.0166,-0.4175 -0.0312,-0.625 -0.28441,-0.021 -0.58105,-0.0195 -0.84375,0.125 0.12875,-10e-4 0.27534,-0.005 0.40625,0.0312 0.19677,0.0547 0.297,0.33895 0.46875,0.46875 z"
           id="path4357"
           transform="matrix(0.14122994,-0.34095794,0.34095794,0.14122994,-48.387104,191.21584)"
           inkscape:connector-curvature="0" />
        <path
           style="opacity:0.17699112;color:#000000;fill:#372258;fill-opacity:1;fill-rule:nonzero;stroke:none;stroke-width:12;marker:none;visibility:visible;display:inline;overflow:visible;enable-background:accumulate"
           d="m 439.5,281.59375 c 0.002,-0.0415 -0.002,-0.0835 0,-0.125 -0.0998,0.0789 -0.17469,0.22624 -0.28125,0.28125 0.10428,0.003 0.17971,-0.13557 0.28125,-0.15625 z"
           id="path4359"
           transform="matrix(0.14122994,-0.34095794,0.34095794,0.14122994,-48.387104,191.21584)"
           inkscape:connector-curvature="0" />
      </g>
      <path
         inkscape:connector-curvature="0"
         style="opacity:0.2035398;color:#000000;fill:#814ea0;fill-opacity:1;fill-rule:nonzero;stroke:none;stroke-width:12;marker:none;visibility:visible;display:inline;overflow:visible;enable-background:accumulate"
         d="m 65.11144,131.99412 c -1.068917,0.0744 -1.991567,0.58558 -2.422332,1.44309 -0.30329,0.60384 -0.292995,1.27474 -0.05155,1.90694 -0.05219,-0.43797 8.24e-4,-0.88028 0.206161,-1.28847 0.689221,-1.37201 2.678718,-1.85477 4.432358,-1.08232 0.99327,0.43716 1.682573,1.16957 1.984254,1.98425 -0.112416,-1.04355 -0.895346,-2.05541 -2.13887,-2.60272 -0.657613,-0.28967 -1.368674,-0.40541 -2.010025,-0.36077 z"
         id="path4361" />
      <g
         transform="matrix(-8.8222268,-0.05535921,0.69167692,-5.1576449,885.62621,620.32451)"
         id="g4363">
        <path
           sodipodi:nodetypes="cscsssc"
           inkscape:connector-curvature="0"
           style="opacity:0.94690265;color:#000000;fill:#ffc6ff;fill-opacity:1;fill-rule:nonzero;stroke:none;stroke-width:12;marker:none;visibility:visible;display:inline;overflow:visible;enable-background:accumulate"
           d="m 101.30432,78.7962 c 0.072,0.309957 -0.37995,0.592252 -0.87155,0.630527 -0.491597,0.03828 -1.128789,-0.1944 -1.182178,-0.628678 -0.01945,-0.232871 0.05266,-0.231269 0.105364,-0.321218 0.142512,-0.243206 0.45704,-0.281368 0.815904,-0.309308 0.44792,-0.03487 0.62135,0.0096 1.01332,0.298609 0.1357,0.10006 0.10712,0.278372 0.11914,0.330068 z"
           id="path4365" />
        <path
           inkscape:connector-curvature="0"
           style="color:#000000;fill:#ffefff;fill-opacity:1;fill-rule:nonzero;stroke:none;stroke-width:12;marker:none;visibility:visible;display:inline;overflow:visible;enable-background:accumulate"
           d="m 101.23309,78.573265 c 0.0754,0.324113 -0.28031,0.619302 -0.79437,0.659324 -0.514043,0.04003 -0.991839,-0.190278 -1.067166,-0.514392 -0.07532,-0.324113 0.280304,-0.619303 0.794356,-0.659325 0.51405,-0.04002 0.99185,0.190279 1.06718,0.514393 z"
           id="path4367" />
        <path
           id="path4369"
           d="m 101.08089,78.54116 c 0.063,0.271116 -0.23447,0.518037 -0.66447,0.551516 -0.429992,0.03348 -0.829662,-0.159166 -0.892672,-0.430282 -0.063,-0.271116 0.23447,-0.518038 0.664462,-0.551516 0.43,-0.03348 0.82967,0.159166 0.89268,0.430282 z"
           style="color:#000000;fill:#c59cdb;fill-opacity:1;fill-rule:nonzero;stroke:none;stroke-width:12;marker:none;visibility:visible;display:inline;overflow:visible;enable-background:accumulate"
           inkscape:connector-curvature="0" />
        <path
           inkscape:connector-curvature="0"
           id="path4371"
           d="m 100.18613,78.110281 c -0.429994,0.03348 -0.724459,0.282855 -0.661459,0.553971 0.04704,-0.211386 0.307348,-0.385842 0.661459,-0.413411 0.43,-0.03348 0.82996,0.158832 0.89297,0.429948 0.0101,-0.0453 0.0111,-0.09272 0,-0.14056 -0.063,-0.271116 -0.46297,-0.463428 -0.89297,-0.429948 z"
           style="color:#000000;fill:#ac86c4;fill-opacity:1;fill-rule:nonzero;stroke:none;stroke-width:12;marker:none;visibility:visible;display:inline;overflow:visible;enable-background:accumulate" />
      </g>
      <g
         id="g4383"
         transform="matrix(1.2477381,-5.7863319,5.2684153,1.9358962,-513.11303,583.03478)">
        <g
           id="g4385"
           transform="matrix(1.4499373,0,0,1.4499373,-45.421519,-35.942556)">
          <path
             sodipodi:nodetypes="cscsssc"
             inkscape:connector-curvature="0"
             style="opacity:0.94690265;color:#000000;fill:#ffc6ff;fill-opacity:1;fill-rule:nonzero;stroke:none;stroke-width:12;marker:none;visibility:visible;display:inline;overflow:visible;enable-background:accumulate"
             d="m 101.30432,78.7962 c 0.072,0.309957 -0.37995,0.592252 -0.87155,0.630527 -0.491597,0.03828 -1.128789,-0.1944 -1.182178,-0.628678 -0.01945,-0.232871 0.05266,-0.231269 0.105364,-0.321218 0.142512,-0.243206 0.45704,-0.281368 0.815904,-0.309308 0.44792,-0.03487 0.62135,0.0096 1.01332,0.298609 0.1357,0.10006 0.10712,0.278372 0.11914,0.330068 z"
             id="path4387" />
          <path
             inkscape:connector-curvature="0"
             style="color:#000000;fill:#ffefff;fill-opacity:1;fill-rule:nonzero;stroke:none;stroke-width:12;marker:none;visibility:visible;display:inline;overflow:visible;enable-background:accumulate"
             d="m 101.23309,78.573265 c 0.0754,0.324113 -0.28031,0.619302 -0.79437,0.659324 -0.514043,0.04003 -0.991839,-0.190278 -1.067166,-0.514392 -0.07532,-0.324113 0.280304,-0.619303 0.794356,-0.659325 0.51405,-0.04002 0.99185,0.190279 1.06718,0.514393 z"
             id="path4389" />
          <path
             id="path4391"
             d="m 101.08089,78.54116 c 0.063,0.271116 -0.23447,0.518037 -0.66447,0.551516 -0.429992,0.03348 -0.829662,-0.159166 -0.892672,-0.430282 -0.063,-0.271116 0.23447,-0.518038 0.664462,-0.551516 0.43,-0.03348 0.82967,0.159166 0.89268,0.430282 z"
             style="color:#000000;fill:#c59cdb;fill-opacity:1;fill-rule:nonzero;stroke:none;stroke-width:12;marker:none;visibility:visible;display:inline;overflow:visible;enable-background:accumulate"
             inkscape:connector-curvature="0" />
          <path
             inkscape:connector-curvature="0"
             id="path4393"
             d="m 100.18613,78.110281 c -0.429994,0.03348 -0.724459,0.282855 -0.661459,0.553971 0.04704,-0.211386 0.307348,-0.385842 0.661459,-0.413411 0.43,-0.03348 0.82996,0.158832 0.89297,0.429948 0.0101,-0.0453 0.0111,-0.09272 0,-0.14056 -0.063,-0.271116 -0.46297,-0.463428 -0.89297,-0.429948 z"
             style="color:#000000;fill:#ac86c4;fill-opacity:1;fill-rule:nonzero;stroke:none;stroke-width:12;marker:none;visibility:visible;display:inline;overflow:visible;enable-background:accumulate" />
        </g>
      </g>
      <g
         transform="matrix(0.53676396,-3.868078,2.7687702,1.2096865,-261.55906,453.57999)"
         id="g4395">
        <path
           sodipodi:nodetypes="cscsssc"
           inkscape:connector-curvature="0"
           style="opacity:0.94690265;color:#000000;fill:#ffc6ff;fill-opacity:1;fill-rule:nonzero;stroke:none;stroke-width:12;marker:none;visibility:visible;display:inline;overflow:visible;enable-background:accumulate"
           d="m 101.30432,78.7962 c 0.072,0.309957 -0.37995,0.592252 -0.87155,0.630527 -0.491597,0.03828 -1.128789,-0.1944 -1.182178,-0.628678 -0.01945,-0.232871 0.05266,-0.231269 0.105364,-0.321218 0.142512,-0.243206 0.45704,-0.281368 0.815904,-0.309308 0.44792,-0.03487 0.62135,0.0096 1.01332,0.298609 0.1357,0.10006 0.10712,0.278372 0.11914,0.330068 z"
           id="path4397" />
        <path
           inkscape:connector-curvature="0"
           style="color:#000000;fill:#ffefff;fill-opacity:1;fill-rule:nonzero;stroke:none;stroke-width:12;marker:none;visibility:visible;display:inline;overflow:visible;enable-background:accumulate"
           d="m 101.23309,78.573265 c 0.0754,0.324113 -0.28031,0.619302 -0.79437,0.659324 -0.514043,0.04003 -0.991839,-0.190278 -1.067166,-0.514392 -0.07532,-0.324113 0.280304,-0.619303 0.794356,-0.659325 0.51405,-0.04002 0.99185,0.190279 1.06718,0.514393 z"
           id="path4399" />
        <path
           id="path4401"
           d="m 101.08089,78.54116 c 0.063,0.271116 -0.23447,0.518037 -0.66447,0.551516 -0.429992,0.03348 -0.829662,-0.159166 -0.892672,-0.430282 -0.063,-0.271116 0.23447,-0.518038 0.664462,-0.551516 0.43,-0.03348 0.82967,0.159166 0.89268,0.430282 z"
           style="color:#000000;fill:#c59cdb;fill-opacity:1;fill-rule:nonzero;stroke:none;stroke-width:12;marker:none;visibility:visible;display:inline;overflow:visible;enable-background:accumulate"
           inkscape:connector-curvature="0" />
        <path
           inkscape:connector-curvature="0"
           id="path4403"
           d="m 100.18613,78.110281 c -0.429994,0.03348 -0.724459,0.282855 -0.661459,0.553971 0.04704,-0.211386 0.307348,-0.385842 0.661459,-0.413411 0.43,-0.03348 0.82996,0.158832 0.89297,0.429948 0.0101,-0.0453 0.0111,-0.09272 0,-0.14056 -0.063,-0.271116 -0.46297,-0.463428 -0.89297,-0.429948 z"
           style="color:#000000;fill:#ac86c4;fill-opacity:1;fill-rule:nonzero;stroke:none;stroke-width:12;marker:none;visibility:visible;display:inline;overflow:visible;enable-background:accumulate" />
      </g>
      <g
         id="g4405"
         transform="matrix(7.3982605,-0.52383444,0.4318057,11.353491,-717.04888,-690.89001)">
        <path
           id="path4407"
           d="m 101.47917,78.721682 c 0.0825,0.355264 -0.43549,0.678823 -0.99895,0.722693 -0.563455,0.04387 -1.293787,-0.222816 -1.35498,-0.720574 -0.02229,-0.26691 0.06036,-0.265074 0.120765,-0.368171 0.163343,-0.278756 0.523847,-0.322496 0.935165,-0.35452 0.5134,-0.03997 0.71218,0.011 1.16144,0.342257 0.15554,0.114686 0.12278,0.319062 0.13656,0.378315 z"
           style="opacity:0.94690265;color:#000000;fill:#f5cdf9;fill-opacity:1;fill-rule:nonzero;stroke:none;stroke-width:12;marker:none;visibility:visible;display:inline;overflow:visible;enable-background:accumulate"
           inkscape:connector-curvature="0"
           sodipodi:nodetypes="cscsssc" />
        <path
           id="path4409"
           d="m 101.23309,78.573265 c 0.0754,0.324113 -0.28031,0.619302 -0.79437,0.659324 -0.514043,0.04003 -0.991839,-0.190278 -1.067166,-0.514392 -0.07532,-0.324113 0.280304,-0.619303 0.794356,-0.659325 0.51405,-0.04002 0.99185,0.190279 1.06718,0.514393 z"
           style="color:#000000;fill:#ffefff;fill-opacity:1;fill-rule:nonzero;stroke:none;stroke-width:12;marker:none;visibility:visible;display:inline;overflow:visible;enable-background:accumulate"
           inkscape:connector-curvature="0" />
        <path
           inkscape:connector-curvature="0"
           style="color:#000000;fill:#c59cdb;fill-opacity:1;fill-rule:nonzero;stroke:none;stroke-width:12;marker:none;visibility:visible;display:inline;overflow:visible;enable-background:accumulate"
           d="m 101.08089,78.54116 c 0.063,0.271116 -0.23447,0.518037 -0.66447,0.551516 -0.429992,0.03348 -0.829662,-0.159166 -0.892672,-0.430282 -0.063,-0.271116 0.23447,-0.518038 0.664462,-0.551516 0.43,-0.03348 0.82967,0.159166 0.89268,0.430282 z"
           id="path4411" />
        <path
           style="color:#000000;fill:#ac86c4;fill-opacity:1;fill-rule:nonzero;stroke:none;stroke-width:12;marker:none;visibility:visible;display:inline;overflow:visible;enable-background:accumulate"
           d="m 100.18613,78.110281 c -0.429994,0.03348 -0.724459,0.282855 -0.661459,0.553971 0.04704,-0.211386 0.307348,-0.385842 0.661459,-0.413411 0.43,-0.03348 0.82996,0.158832 0.89297,0.429948 0.0101,-0.0453 0.0111,-0.09272 0,-0.14056 -0.063,-0.271116 -0.46297,-0.463428 -0.89297,-0.429948 z"
           id="path4413"
           inkscape:connector-curvature="0" />
      </g>
      <g
         transform="matrix(5.8225549,2.5166641,3.5618248,-9.0406958,-824.0082,641.35185)"
         id="g4419">
        <path
           sodipodi:nodetypes="cscsssc"
           inkscape:connector-curvature="0"
           style="opacity:0.94690265;color:#000000;fill:#f5cdf9;fill-opacity:1;fill-rule:nonzero;stroke:none;stroke-width:12;marker:none;visibility:visible;display:inline;overflow:visible;enable-background:accumulate"
           d="m 101.47917,78.721682 c 0.0825,0.355264 -0.43549,0.678823 -0.99895,0.722693 -0.563455,0.04387 -1.293787,-0.222816 -1.35498,-0.720574 -0.02229,-0.26691 0.06036,-0.265074 0.120765,-0.368171 0.163343,-0.278756 0.523847,-0.322496 0.935165,-0.35452 0.5134,-0.03997 0.71218,0.011 1.16144,0.342257 0.15554,0.114686 0.12278,0.319062 0.13656,0.378315 z"
           id="path4421" />
        <path
           inkscape:connector-curvature="0"
           style="color:#000000;fill:#ffefff;fill-opacity:1;fill-rule:nonzero;stroke:none;stroke-width:12;marker:none;visibility:visible;display:inline;overflow:visible;enable-background:accumulate"
           d="m 101.23309,78.573265 c 0.0754,0.324113 -0.28031,0.619302 -0.79437,0.659324 -0.514043,0.04003 -0.991839,-0.190278 -1.067166,-0.514392 -0.07532,-0.324113 0.280304,-0.619303 0.794356,-0.659325 0.51405,-0.04002 0.99185,0.190279 1.06718,0.514393 z"
           id="path4423" />
        <path
           id="path4425"
           d="m 101.08089,78.54116 c 0.063,0.271116 -0.23447,0.518037 -0.66447,0.551516 -0.429992,0.03348 -0.829662,-0.159166 -0.892672,-0.430282 -0.063,-0.271116 0.23447,-0.518038 0.664462,-0.551516 0.43,-0.03348 0.82967,0.159166 0.89268,0.430282 z"
           style="color:#000000;fill:#c59cdb;fill-opacity:1;fill-rule:nonzero;stroke:none;stroke-width:12;marker:none;visibility:visible;display:inline;overflow:visible;enable-background:accumulate"
           inkscape:connector-curvature="0" />
        <path
           inkscape:connector-curvature="0"
           id="path4427"
           d="m 100.18613,78.110281 c -0.429994,0.03348 -0.724459,0.282855 -0.661459,0.553971 0.04704,-0.211386 0.307348,-0.385842 0.661459,-0.413411 0.43,-0.03348 0.82996,0.158832 0.89297,0.429948 0.0101,-0.0453 0.0111,-0.09272 0,-0.14056 -0.063,-0.271116 -0.46297,-0.463428 -0.89297,-0.429948 z"
           style="color:#000000;fill:#ac86c4;fill-opacity:1;fill-rule:nonzero;stroke:none;stroke-width:12;marker:none;visibility:visible;display:inline;overflow:visible;enable-background:accumulate" />
      </g>
      <g
         id="g4429"
         transform="matrix(4.7823453,-1.3883161,-0.45272715,-4.3867371,-373.93138,685.54619)">
        <path
           id="path4431"
           d="m 101.47917,78.721682 c 0.0825,0.355264 -0.43549,0.678823 -0.99895,0.722693 -0.563455,0.04387 -1.293787,-0.222816 -1.35498,-0.720574 -0.02229,-0.26691 0.06036,-0.265074 0.120765,-0.368171 0.163343,-0.278756 0.523847,-0.322496 0.935165,-0.35452 0.5134,-0.03997 0.71218,0.011 1.16144,0.342257 0.15554,0.114686 0.12278,0.319062 0.13656,0.378315 z"
           style="opacity:0.94690265;color:#000000;fill:#ffc6ff;fill-opacity:1;fill-rule:nonzero;stroke:none;stroke-width:12;marker:none;visibility:visible;display:inline;overflow:visible;enable-background:accumulate"
           inkscape:connector-curvature="0"
           sodipodi:nodetypes="cscsssc" />
        <path
           id="path4433"
           d="m 101.23309,78.573265 c 0.0754,0.324113 -0.28031,0.619302 -0.79437,0.659324 -0.514043,0.04003 -0.991839,-0.190278 -1.067166,-0.514392 -0.07532,-0.324113 0.280304,-0.619303 0.794356,-0.659325 0.51405,-0.04002 0.99185,0.190279 1.06718,0.514393 z"
           style="color:#000000;fill:#ffefff;fill-opacity:1;fill-rule:nonzero;stroke:none;stroke-width:12;marker:none;visibility:visible;display:inline;overflow:visible;enable-background:accumulate"
           inkscape:connector-curvature="0" />
        <path
           inkscape:connector-curvature="0"
           style="color:#000000;fill:#c59cdb;fill-opacity:1;fill-rule:nonzero;stroke:none;stroke-width:12;marker:none;visibility:visible;display:inline;overflow:visible;enable-background:accumulate"
           d="m 101.08089,78.54116 c 0.063,0.271116 -0.23447,0.518037 -0.66447,0.551516 -0.429992,0.03348 -0.829662,-0.159166 -0.892672,-0.430282 -0.063,-0.271116 0.23447,-0.518038 0.664462,-0.551516 0.43,-0.03348 0.82967,0.159166 0.89268,0.430282 z"
           id="path4435" />
        <path
           style="color:#000000;fill:#ac86c4;fill-opacity:1;fill-rule:nonzero;stroke:none;stroke-width:12;marker:none;visibility:visible;display:inline;overflow:visible;enable-background:accumulate"
           d="m 100.18613,78.110281 c -0.429994,0.03348 -0.724459,0.282855 -0.661459,0.553971 0.04704,-0.211386 0.307348,-0.385842 0.661459,-0.413411 0.43,-0.03348 0.82996,0.158832 0.89297,0.429948 0.0101,-0.0453 0.0111,-0.09272 0,-0.14056 -0.063,-0.271116 -0.46297,-0.463428 -0.89297,-0.429948 z"
           id="path4437"
           inkscape:connector-curvature="0" />
      </g>
      <g
         transform="matrix(4.0984056,-4.2710137,-4.5517254,-3.2841572,27.413503,868.22574)"
         id="g4439">
        <g
           transform="matrix(1.4499373,0,0,1.4499373,-45.421519,-35.942556)"
           id="g4441">
          <path
             id="path4443"
             d="m 101.30432,78.7962 c 0.072,0.309957 -0.37995,0.592252 -0.87155,0.630527 -0.491597,0.03828 -1.128789,-0.1944 -1.182178,-0.628678 -0.01945,-0.232871 0.05266,-0.231269 0.105364,-0.321218 0.142512,-0.243206 0.45704,-0.281368 0.815904,-0.309308 0.44792,-0.03487 0.62135,0.0096 1.01332,0.298609 0.1357,0.10006 0.10712,0.278372 0.11914,0.330068 z"
             style="opacity:0.94690265;color:#000000;fill:#ffc6ff;fill-opacity:1;fill-rule:nonzero;stroke:none;stroke-width:12;marker:none;visibility:visible;display:inline;overflow:visible;enable-background:accumulate"
             inkscape:connector-curvature="0"
             sodipodi:nodetypes="cscsssc" />
          <path
             id="path4445"
             d="m 101.23309,78.573265 c 0.0754,0.324113 -0.28031,0.619302 -0.79437,0.659324 -0.514043,0.04003 -0.991839,-0.190278 -1.067166,-0.514392 -0.07532,-0.324113 0.280304,-0.619303 0.794356,-0.659325 0.51405,-0.04002 0.99185,0.190279 1.06718,0.514393 z"
             style="color:#000000;fill:#ffefff;fill-opacity:1;fill-rule:nonzero;stroke:none;stroke-width:12;marker:none;visibility:visible;display:inline;overflow:visible;enable-background:accumulate"
             inkscape:connector-curvature="0" />
          <path
             inkscape:connector-curvature="0"
             style="color:#000000;fill:#c59cdb;fill-opacity:1;fill-rule:nonzero;stroke:none;stroke-width:12;marker:none;visibility:visible;display:inline;overflow:visible;enable-background:accumulate"
             d="m 101.08089,78.54116 c 0.063,0.271116 -0.23447,0.518037 -0.66447,0.551516 -0.429992,0.03348 -0.829662,-0.159166 -0.892672,-0.430282 -0.063,-0.271116 0.23447,-0.518038 0.664462,-0.551516 0.43,-0.03348 0.82967,0.159166 0.89268,0.430282 z"
             id="path4447" />
          <path
             style="color:#000000;fill:#ac86c4;fill-opacity:1;fill-rule:nonzero;stroke:none;stroke-width:12;marker:none;visibility:visible;display:inline;overflow:visible;enable-background:accumulate"
             d="m 100.18613,78.110281 c -0.429994,0.03348 -0.724459,0.282855 -0.661459,0.553971 0.04704,-0.211386 0.307348,-0.385842 0.661459,-0.413411 0.43,-0.03348 0.82996,0.158832 0.89297,0.429948 0.0101,-0.0453 0.0111,-0.09272 0,-0.14056 -0.063,-0.271116 -0.46297,-0.463428 -0.89297,-0.429948 z"
             id="path4449"
             inkscape:connector-curvature="0" />
        </g>
      </g>
      <g
         transform="matrix(5.0930148,-0.36061134,0.2972581,7.8158234,-465.69645,-403.36929)"
         id="g4451">
        <path
           sodipodi:nodetypes="cscsssc"
           inkscape:connector-curvature="0"
           style="opacity:0.94690265;color:#000000;fill:#f5cdf9;fill-opacity:1;fill-rule:nonzero;stroke:none;stroke-width:12;marker:none;visibility:visible;display:inline;overflow:visible;enable-background:accumulate"
           d="m 101.47917,78.721682 c 0.0825,0.355264 -0.43549,0.678823 -0.99895,0.722693 -0.563455,0.04387 -1.293787,-0.222816 -1.35498,-0.720574 -0.02229,-0.26691 0.06036,-0.265074 0.120765,-0.368171 0.163343,-0.278756 0.523847,-0.322496 0.935165,-0.35452 0.5134,-0.03997 0.71218,0.011 1.16144,0.342257 0.15554,0.114686 0.12278,0.319062 0.13656,0.378315 z"
           id="path4453" />
        <path
           inkscape:connector-curvature="0"
           style="color:#000000;fill:#ffd5ff;fill-opacity:1;fill-rule:nonzero;stroke:none;stroke-width:12;marker:none;visibility:visible;display:inline;overflow:visible;enable-background:accumulate"
           d="m 101.23309,78.573265 c 0.0754,0.324113 -0.28031,0.619302 -0.79437,0.659324 -0.514043,0.04003 -0.991839,-0.190278 -1.067166,-0.514392 -0.07532,-0.324113 0.280304,-0.619303 0.794356,-0.659325 0.51405,-0.04002 0.99185,0.190279 1.06718,0.514393 z"
           id="path4455" />
        <path
           sodipodi:nodetypes="cccsc"
           id="path4913"
           d="m 101.07678,78.629548 c 0.063,0.270584 -0.23401,0.51702 -0.66317,0.550432 -0.429148,0.03342 -0.828033,-0.158852 -0.890919,-0.429436 -0.06288,-0.270583 0.23401,-0.517021 0.663159,-0.550433 0.42915,-0.03341 0.82804,0.158853 0.89093,0.429437 z"
           style="color:#000000;fill:#c59cdb;fill-opacity:1;fill-rule:nonzero;stroke:none;stroke-width:12;marker:none;visibility:visible;display:inline;overflow:visible;enable-background:accumulate"
           inkscape:connector-curvature="0" />
      </g>
      <g
         transform="matrix(1.9131315,-1.8348241,0.87881698,1.7635635,-231.15946,175.39039)"
         id="g4459">
        <g
           transform="matrix(1.4499373,0,0,1.4499373,-45.421519,-35.942556)"
           id="g4461">
          <path
             id="path4463"
             d="m 101.30432,78.7962 c 0.072,0.309957 -0.37995,0.592252 -0.87155,0.630527 -0.491597,0.03828 -1.128789,-0.1944 -1.182178,-0.628678 -0.01945,-0.232871 0.05266,-0.231269 0.105364,-0.321218 0.142512,-0.243206 0.45704,-0.281368 0.815904,-0.309308 0.44792,-0.03487 0.62135,0.0096 1.01332,0.298609 0.1357,0.10006 0.10712,0.278372 0.11914,0.330068 z"
             style="opacity:0.94690265;color:#000000;fill:#ffc6ff;fill-opacity:1;fill-rule:nonzero;stroke:none;stroke-width:12;marker:none;visibility:visible;display:inline;overflow:visible;enable-background:accumulate"
             inkscape:connector-curvature="0"
             sodipodi:nodetypes="cscsssc" />
          <path
             id="path4465"
             d="m 101.23309,78.573265 c 0.0754,0.324113 -0.28031,0.619302 -0.79437,0.659324 -0.514043,0.04003 -0.991839,-0.190278 -1.067166,-0.514392 -0.07532,-0.324113 0.280304,-0.619303 0.794356,-0.659325 0.51405,-0.04002 0.99185,0.190279 1.06718,0.514393 z"
             style="color:#000000;fill:#ffefff;fill-opacity:1;fill-rule:nonzero;stroke:none;stroke-width:12;marker:none;visibility:visible;display:inline;overflow:visible;enable-background:accumulate"
             inkscape:connector-curvature="0" />
          <path
             inkscape:connector-curvature="0"
             style="color:#000000;fill:#c59cdb;fill-opacity:1;fill-rule:nonzero;stroke:none;stroke-width:12;marker:none;visibility:visible;display:inline;overflow:visible;enable-background:accumulate"
             d="m 101.08089,78.54116 c 0.063,0.271116 -0.23447,0.518037 -0.66447,0.551516 -0.429992,0.03348 -0.829662,-0.159166 -0.892672,-0.430282 -0.063,-0.271116 0.23447,-0.518038 0.664462,-0.551516 0.43,-0.03348 0.82967,0.159166 0.89268,0.430282 z"
             id="path4467" />
          <path
             style="color:#000000;fill:#ac86c4;fill-opacity:1;fill-rule:nonzero;stroke:none;stroke-width:12;marker:none;visibility:visible;display:inline;overflow:visible;enable-background:accumulate"
             d="m 100.18613,78.110281 c -0.429994,0.03348 -0.724459,0.282855 -0.661459,0.553971 0.04704,-0.211386 0.307348,-0.385842 0.661459,-0.413411 0.43,-0.03348 0.82996,0.158832 0.89297,0.429948 0.0101,-0.0453 0.0111,-0.09272 0,-0.14056 -0.063,-0.271116 -0.46297,-0.463428 -0.89297,-0.429948 z"
             id="path4469"
             inkscape:connector-curvature="0" />
        </g>
      </g>
      <path
         id="path4908"
         d="m 16.033813,170.54124 c -0.569882,0.89542 -0.574597,2.62986 0.0729,4.42497 0.840049,2.3288 2.458247,3.87248 3.622643,3.45246 0.470078,-0.16957 0.785969,-0.64059 0.948209,-1.2886 -0.169429,0.2662 -0.389608,0.46296 -0.656452,0.5592 -1.164396,0.42003 -2.782595,-1.12366 -3.622643,-3.45245 -0.500911,-1.38865 -0.604333,-2.73846 -0.364696,-3.69558 z m 48.917837,3.30657 c -0.38557,0.7364 -0.555317,1.58721 -0.389008,2.45562 0.401503,2.09628 2.488091,3.45587 4.668103,3.03913 1.588708,-0.30369 2.779964,-1.47372 3.160696,-2.89325 -0.544454,1.06882 -1.568936,1.91535 -2.868939,2.16386 -2.180012,0.41673 -4.2666,-0.94285 -4.668104,-3.03913 -0.113909,-0.59482 -0.05913,-1.17702 0.09725,-1.72623 z m -0.826643,18.08891 c -0.516269,0.80082 -1.590322,1.61798 -2.966191,2.13954 -2.201384,0.83453 -4.323792,0.61441 -4.741043,-0.48626 -0.07111,-0.18758 -0.08044,-0.39914 -0.04863,-0.60782 -0.294876,0.47029 -0.396322,0.93311 -0.24313,1.33721 0.41725,1.1007 2.539658,1.32077 4.741042,0.48627 1.809427,-0.68593 3.083563,-1.85925 3.257948,-2.86894 z m -38.925178,2.60149 c -1.002016,1.1231 0.563487,3.50891 3.574017,5.3975 3.078195,1.93103 6.491232,2.59684 7.634295,1.50741 0.226232,-0.21562 0.341417,-0.4947 0.364696,-0.80234 -0.02256,0.0252 -0.04785,0.049 -0.0729,0.0729 -1.143063,1.08944 -4.5561,0.42361 -7.634294,-1.50741 -2.468968,-1.54886 -3.960116,-3.4214 -3.865774,-4.66811 z"
         style="opacity:0.37168142;color:#000000;fill:#ac86c4;fill-opacity:1;fill-rule:nonzero;stroke:none;stroke-width:12;marker:none;visibility:visible;display:inline;overflow:visible;enable-background:accumulate"
         inkscape:connector-curvature="0" />
    </g>
    <path
       style="opacity:0.49115044;color:#000000;fill:url(#radialGradient7268);fill-opacity:1;fill-rule:nonzero;stroke:none;stroke-width:12;marker:none;visibility:visible;display:inline;overflow:visible;enable-background:accumulate"
       d="m 200.6875,-14.09375 c -119.329591,0 -216.0625,95.754898 -216.0625,213.84375 0,118.08886 96.732909,213.8125 216.0625,213.8125 119.32959,0 216.0625,-95.72364 216.0625,-213.8125 0,-118.088852 -96.73291,-213.84375 -216.0625,-213.84375 z m -1.625,39.46875 c 97.90997,0 177.25004,73.558771 177.25,171.46875 0,97.91005 -79.34003,172.5625 -177.25,172.5625 -21.38701,0 -41.95509,-3.59736 -60.9375,-10.1875 -0.0229,0.0151 -0.0703,-0.0151 -0.0937,0 -2.01651,1.19588 -4.14214,1.98862 -5.875,1.46875 -5.52671,-1.658 -21.50805,-8.26789 -23.71875,-11.03125 -1.43028,-1.78783 -2.62469,-3.08482 -2.84375,-5.59375 -13.276028,-7.88315 -25.406058,-17.46444 -36.03125,-28.40625 -0.137613,0.0801 -0.216115,0.25101 -0.34375,0.28125 -2.210695,0.55268 -2.767883,-0.56075 -5.53125,-2.21875 -2.763371,-1.658 -8.363401,-7.69553 -9.46875,-9.90625 -0.740663,-1.48135 -0.642187,-3.17857 0.9375,-5.15625 -20.982001,-28.2127 -33.375,-63.16143 -33.375,-101.8125 0,-16.73144 2.292829,-32.81332 6.625,-47.875 0.01085,-0.0378 0.07901,-0.0559 0.09375,-0.0937 0,0 -0.07901,-0.0786 -0.09375,-0.0937 -0.223835,-0.26657 -2.108637,-2.64444 -1.9375,-7.15625 3.241916,-9.84098 7.316374,-19.23423 12.21875,-28.125 2.573144,-1.39472 5.625,-2.125 5.625,-2.125 0.04324,0.0998 0.05259,0.17882 0.09375,0.28125 C 74.761713,59.29018 132.61396,25.375 199.0625,25.375 z"
       id="path6146"
       inkscape:connector-curvature="0"
       transform="matrix(0.26458335,0,0,0.26458335,3.0610673,113.41376)"
       gds_switchable="glow" />
  </g>
</svg>
